<?xml version="1.0" encoding="utf-8"?>
<!-- Generator: Adobe Illustrator 21.0.0, SVG Export Plug-In . SVG Version: 6.00 Build 0)  -->
<svg version="1.1" xmlns="http://www.w3.org/2000/svg" xmlns:xlink="http://www.w3.org/1999/xlink" x="0px" y="0px"
	 viewBox="0 0 496.3 530.6" style="enable-background:new 0 0 496.3 530.6;" xml:space="preserve">
<style type="text/css">
	.st0{display:none;}
	.st1{display:inline;fill:#F3E8C2;}
	.st2{display:inline;}
	.st3{fill:#AB966A;}
	.st4{fill:#FCF9EE;}
	.st5{fill:#5B1E18;}
	.st6{fill:#FFFFFF;}
	.st7{fill:#251412;}
	.st8{fill:#160D0D;}
	.st9{fill:#1F1C27;}
	.st10{fill:#F83A62;}
	.st11{fill:#DEA9A3;}
	.st12{opacity:0.3;fill:#070606;}
	.st13{fill:#130B0A;}
	.st14{opacity:0.7;fill:#070606;}
	.st15{fill:#070606;}
	.st16{fill:none;stroke:#130B0A;stroke-miterlimit:10;}
</style>
<g id="Layer_1" class="st0">
</g>
<g id="Background" class="st0">
	<rect x="-31.3" y="3.8" class="st1" width="528" height="526.5"/>
	<g id="Layer_12" class="st2">
		<path class="st3" d="M243.9,8.2c-51,63.6,80.3,181.8,62,355c-2.1,19.7-10.4,80.1,16,95c4.7,2.6,7.6,2.2,41.5-2
			c78.9-9.8,88.8-10.7,97-9.5c8.2,1.2,16.7-0.3,25,0c2.1,0.1,4.8,0.2,7-1.5c5.2-4,3.1-14.5,2.5-18c-3.5-19.4,0.1-39.7-4-59
			c-12.7-59.5,48.7-254.4-13-336.5C428-34.8,285.4-43.6,243.9,8.2z"/>
		<path class="st4" d="M142.5,268.5c-60.5,2.7-103.7,85.9-130.7,98c-1.4,0.6-8.5,3.7-8.7,8c-0.1,2,1.3,3.6,7.3,9.3
			c4.8,4.5,7.2,6.8,8.7,8c10.5,8.4,26.8,26,28,27.3c17.4,19,11.7,34.5,30,78.7c5.4,13.1,7.2,14.7,11.3,26.7
			c3.9,11.3,4.2,15.2,7.3,16.7c8.5,4.1,25.6-15.5,37.3-28.7c61.4-68.8,63-58,70.7-76.7c12.3-30,7.3-55.7-2.7-106.7
			c-6.1-31.3-13.5-44.7-25.3-52.7C162.9,267.8,148.4,268.2,142.5,268.5z"/>
		<path class="st4" d="M-44.8-13.5c-58.6,33.9-72.4,147.8-34,178.7c4.6,3.7,8.9,5.4,10.7,6c104.6,37.2,176.5,65.6,206.7,34.7
			c21.7-22.2-6.7-45.5,18.7-105.3c6.3-15,17.9-36.7,22.7-70.7c1.1-8.1,6.1-17.2,2-26c-5.9-12.5-23.2-15.7-38-18
			C95.9-21.7,72-25.5,34.5-23.5C-11.1-21-34-19.8-44.8-13.5z"/>
	</g>
</g>
<g id="Leaves">
</g>
<g id="Base_Colors">
	<path class="st5" d="M453.3,373.2c-0.2-0.3-0.3-0.6-0.6-0.9c-12.1-14.2-22.9-29.2-32.7-45c-0.9-2.3-1.7-4.6-2.5-6.9
		c-1.7-4.9-2.9-9.5-6.2-13.6c-0.4-0.5-0.8-0.8-1.3-1c1.7,0.1,3.5-0.1,4.9-0.5c5.2-1.4,8.5-5.6,10.7-10.2c4-8.6,7.1-16.9,8-26.4
		c4-7.6,5.8-16.1,6.2-24.8c0.4-9.4,1.2-20.2-0.8-29.7c0.3-1.5,0.3-3.2,0-5c-0.3-1.9-0.9-3.9-1.8-5.7c-0.1-0.3-0.1-0.7-0.2-1.1
		c-0.6-3.1-2.8-5.6-5.6-7.1c-3.6-4.1-8.4-6.6-13.9-7.1c-4.2-0.4-8.1,0.3-11.8,1.6c-0.8-0.4-1.6-0.7-2.5-0.9
		c-9.2-1.8-18.4-3.6-27.6-5.5c-5.9-1.2-10.7,1.1-13.3,5.5c-0.7,0.5-1.3,1.2-1.8,1.9c-8.3,4.2-15.9,9.6-23.5,15
		c-0.2,0.2-0.5,0.3-0.7,0.5c-6.1,2.8-12.4,5.3-18.8,7.6c-1.1,0.4-2.2,0.8-3.3,1.2c-3.1,2.1-7.3,3.3-10,4.2
		c-5.6,1.9-11.4,2.4-17.3,2.8c-3.8,1-7.8,1.6-11.8,2.1c-6.3,0.8-12.7,1.1-19,1.5c-7.2,0.5-13.1-0.8-19.9-2.8
		c-1.7-0.2-3.3-0.6-4.5-1.2c-0.9,0-1.8-0.1-2.6-0.1c-24.4-1.6-49.1-6.3-71.5-16.5c-2.6-0.2-5.2-0.9-7.8-1.7
		c-5.5-1.6-11-3.2-16.6-4.6c-0.8-0.2-1.2-0.6-1.5-1.1c-3.4-1.1-6.7-2.4-10.1-3.7c0,0.4-0.1,0.7-0.1,1.1c1.7,4.3,2.7,8.9,3.8,13.4
		c0.3,1.1-0.2,2-0.9,2.5c1.7,5.1,2.7,10.5,2.9,15.9c0,0,0,0,0,0c0.5,1.3,1,2.5,1.5,3.8c0.5,1.1,0.9,2.2,1.2,3.4
		c1.2,3.3,2.5,6.6,4,9.8c0.2,0.5-0.1,0.9-0.5,1c0.7,0.4,1.4,0.8,2.2,1.2c0.1,0,0.1-0.1,0.2-0.1c1.3-0.4,2.6-0.7,3.9-0.9
		c0,1.5,0.1,3.1,0.3,4.6c0.4,3.1,1.5,6,3.4,8.2c0.3,0.7,0.6,1.4,0.9,2.1c-1.4-0.3-2.9-0.7-4.2-1.1c-0.6-0.2-0.7-0.7-0.5-1.1
		c-0.1,0.1-0.3,0.2-0.4,0.2c-0.4,0.3-0.9,0.6-1.3,0.9c-0.3,0.2-0.6,0.2-0.8,0.1c0.2,1.2,0.3,2.4,0.5,3.6c0.6,2.3,1.6,4.7,1.9,5.7
		c0.1,0.2,0,0.3,0,0.5c1.1,2.2,2.5,4.3,4.1,6.3c0.6,0.8-0.3,1.8-1.1,1.3c-1.7,3.9-3.7,7.7-5.5,11.5c-1.4,4.1-2.5,8.4-3.3,12.7
		c-0.4,2.1-0.6,4.3-0.8,6.5c0.3,0.1,0.6,0.3,0.6,0.7c0.3,2.3,0.6,4.7,0.9,7c0.2,1.3,0.4,2.7,0.6,4c1.2,3.8,2.3,7.7,3.8,11.4
		c0.9,2.3,1.8,4.5,2.8,6.7c0.8,1.3,1.5,2.6,2.3,3.8c1,1.7,3,3.7,3.3,5.7c0.1,0.5-0.3,1-0.7,1.1c0.3,0.4,0.6,0.9,0.9,1.3
		c1.3,0.8,2.6,1.9,3.8,3.1c0.4,0.2,0.8,0.5,1.1,0.9c3.3,4.8,7.1,9,9.4,14.4c0.7,1.7,1.5,3.2,2.3,4.7c-0.6,0.6-0.9,1.7-0.4,2.5
		c1.4,2.1,3.2,3.8,4.6,5.7c-1.3,1-0.9,3.6,1.2,3.6c0.3,0,0.5-0.1,0.7-0.1c0.1,0.1,0.2,0.3,0.3,0.5c1.4,2.2,0.5,3.4-0.5,5.2
		c-1.4,2-2.2,4.3-1.9,7.1c0,0,0,0,0,0.1c0,0,0,0,0,0c0,0.2,0,0.4,0.1,0.5c0,0.3,0.2,0.6,0.3,0.8c0,0.5,0,0.9,0,1.4
		c-0.7,1.5-1.4,3.1-2.2,4.6c0,0,0,0,0,0.1c-0.1,0.6-0.1,1.1-0.1,1.7c-2.1,0.9-2.8,4.1-2.5,6.2c0.1,1,0.4,1.8,0.9,2.6
		c-0.1,0.5,0,1.1,0.4,1.6c0.6,0.8,1.3,1.6,2.2,2c0.4,0.2,0.7,0.3,1.1,0.3c0.3,0.2,0.6,0.2,1,0.2c0.1,0,0.1,0.1,0.2,0.1
		c1.7,3.5,3.8,6.8,5.7,10.4c0.5,0.9,0.9,1.8,1.3,2.6c1,1,1.7,2.3,2.4,3.6c-0.2,0.3-0.4,0.6-0.5,0.9c-0.8,2.4,0.3,4.4,2.3,5.8
		c1,0.7,1.8,0.8,2.5,1.3c0.5,0.8,0.9,1.6,1.4,2.5c0.1,1.8-1.1,3.6-1,5.5c0.1,2,1.1,4.1,3,4.8c0.1,0,0.1,0,0.2,0.1
		c0.3,0.5,0.8,1,1.6,1c1.7,0.1,2.9,0.7,3.9,1.5c0.5,0.5,0.9,1,1.3,1.7c0.3,0.4,0.6,0.6,0.9,0.8c1.3,1.6,2.5,3.4,4.6,4.3
		c0.1,0.1,0.3,0.2,0.4,0.3c2.9,2.1,6.8,2.5,9.3-0.1c6.6,2.1,13.7,2.9,21.1,3.4c5.5,0.4,10.5,2.2,15.6,4.4c6,2.6,11.6,5.6,18.2,3.7
		c0.1,0,0.1,0,0.2-0.1c-0.2-0.8,0.2-1.9,1.6-3c2.5-2.1,5.7-2.2,8.9-2.4c1.8-1,3.6-2,5.5-2.7c2.5-0.8,5-1.5,7.5-2.1
		c0.8-0.3,1.5-0.7,2.1-1.2c0.3-1.1,0.8-2,1.5-2.9c-2.2,4.6,2.3,5.4,6.8,5.4c1.2,0,2.4,0.1,3.6,0.2c2.7-0.3,5.2-1.2,7.8-1.8
		c2.8-0.6,5.7-1,8.5-1.6c0.3-0.7-0.2-1.6-1.1-1.3c-2.4,0.7-4.7,1.1-6.9,1.2c4.5-0.8,9-1.6,13.5-2.4c1.5-0.2,3-0.4,4.6-0.7
		c6.2-0.8,12.4-1.8,18.5-3.5c1.1-0.2,2.3-0.4,3.4-0.6c0.3-0.1,0.6-0.2,0.8-0.4c8-1.9,15.7-4.8,23.2-8.2c3-1.2,6-2.6,8.8-4.1
		c0.1-0.1,0.2-0.1,0.3-0.2c4-1.9,7.9-4,11.6-6.3c0.7-0.4,1-1,1-1.6c1.6-1,3.1-2,4.7-3c0.6-0.4,0.8-0.9,0.9-1.5
		c2.4-1.5,4.8-3.1,7.2-4.7c0.2-0.1,0.3-0.2,0.4-0.4c8.3-5.1,16.3-10.7,23.5-17.4c9.8-9.1,19-18.3,24.9-30.5
		C458.5,376.4,456,373,453.3,373.2z M296.1,458.8c-0.6,0.2-1.1,0.5-1.7,0.7c-0.6,0.3-0.8,0.7-0.9,1.2c-0.2,0.1-0.3,0.3-0.5,0.4
		c-0.1,0-0.1,0-0.2,0c0.1-0.1,0.2-0.2,0.3-0.2c-0.1-0.7,0.3-1.4,1-1.7c1.1-0.4,2.2-0.7,3.3-1.1C296.9,458.3,296.5,458.6,296.1,458.8
		z M305.7,454.5c0,0.1,0,0.2,0,0.4c-0.2,0.3-0.3,0.7-0.5,1c-0.3-0.1-0.7-0.2-1.1-0.1c-0.5,0.1-0.9,0.2-1.4,0.3
		C303.8,455.6,304.8,455.1,305.7,454.5z M305.4,466.6c-1.1,0-2.3-0.2-3.4-0.3c0.4-0.1,0.7-0.3,1.1-0.4c1,0.3,2,0.6,3.1,0.7
		C305.9,466.6,305.7,466.6,305.4,466.6z M310.7,450.1c0.2-0.3,0.4-0.6,0.6-0.8c0.7-1,2-0.8,2.5,0
		C312.8,449.5,311.7,449.8,310.7,450.1z M326.2,438.2c-0.1-0.6,0-1.2,0.7-1.4c0.1,0,0.2-0.1,0.4-0.1l0,0c0,0,0,0,0,0
		c0.6-0.2,1.2-0.5,1.9-0.8c0,0,0.1,0,0.1-0.1C328.2,436.6,327.2,437.4,326.2,438.2z M333.6,433c-0.6,0.4-1.3,0.8-1.9,1.2
		c0,0,0.1-0.1,0.1-0.1c0.6-0.7,1.2-1.3,1.8-1.9c0,0,0-0.1,0.1-0.1C333.6,432.4,333.5,432.7,333.6,433z M364.7,407.4
		c-0.2,0.1-0.5,0.2-0.7,0.4c-3.7,2.6-7.2,5.4-10.5,8.5c-0.4-0.2-0.8-0.3-1.2-0.3c4.3-3.1,8.8-6.2,13.1-9.3
		C365.1,406.9,364.9,407.2,364.7,407.4z M375.5,395.3c-0.9,0.9-1.2,2-1.1,3.1c-0.2,0.3-0.3,0.5-0.5,0.8c-0.1,0.2-0.1,0.3-0.2,0.5
		c-0.8,0.9-1.6,1.8-2.3,2.7c-0.7,0-1.3,0.2-1.9,0.6c-0.1,0.1-0.3,0.2-0.4,0.3c1-1.5,2.3-2.9,3.5-4.3c0.2-0.2,0.4-0.5,0.6-0.7
		c0,0,0-0.1,0-0.1c1.1-1.7,2.4-3.1,3.8-4.5c0,0,0-0.1,0.1-0.1c0.2-0.2,0.4-0.4,0.6-0.5c1.3-1.3,2.6-2.5,3.9-3.8
		c1.2-1.3,2.4-2.5,3.7-3.6c0,0.2,0.1,0.4,0.2,0.6C382,389.1,378.7,392.2,375.5,395.3z M401.3,359.7c0.4-1.4,0.7-2.9,0.9-4.4
		C402.1,356.8,401.9,358.2,401.3,359.7z M406.5,306.2c-0.1,0-0.1,0-0.2,0c0.2-0.3,0.4-0.7,0.5-0.9c0.3,0.1,0.7,0.2,1,0.2
		C407.3,305.6,406.9,305.9,406.5,306.2z"/>
	<path class="st6" d="M280.7,242.7c-5.3-0.6-10.3-1.8-15.4-3.4c-4.2-1.3-7.9-2.4-12.4-1.8c-0.1,0-0.1,0-0.2,0
		c-0.6-0.2-1.3-0.3-2.1-0.1c-0.4,0.1-0.8,0.2-1.2,0.3c-2.5,0.1-5,0.6-6.9,2.3c-0.1,0-0.3,0-0.4,0.1c-2.7,1.5-4.9,3.1-6.9,5.2
		c-1.1,0.7-2.1,1.5-3.1,2.3c-0.3,0.3-0.4,0.9-0.2,1.2c1.3,2.3,5.6,2.7,9.2,2.6c3.8,1.9,12.3,0.6,14.8,0.2c8.3-1.1,18.2-2.3,25.2-7.2
		C282,244,281.7,242.8,280.7,242.7z"/>
	<path class="st6" d="M169.2,252.6c-0.5-0.4-1-0.8-1.6-1.1c0,0-0.1-0.1-0.1-0.1c-0.3-0.2-0.6-0.4-0.9-0.6c-0.2-0.1-0.4-0.2-0.6-0.1
		c-0.2-0.1-0.4-0.2-0.6-0.2c-1.2-0.5-2.3-1.1-3.5-1.8c-0.2-0.1-0.4-0.1-0.6-0.1c-4.3-2.6-8.9-4-14-4.2c-0.1,0-0.2,0-0.3,0
		c-0.1-0.1-0.2-0.2-0.4-0.2c-1.6-0.3-2.7-0.2-4.1,0.4c-0.3,0-0.5,0-0.7,0c-0.2,0-0.4,0.1-0.5,0.1c-0.3,0-0.6,0.3-0.7,0.7
		c-0.1,0.5-0.3,1.1-0.4,1.6c-0.1,0.2,0,0.4,0,0.6c0,0.1,0,0.1,0,0.2c0.1,0.8,0.2,1.7,0.5,2.6c-0.3,0.2-0.5,0.5-0.5,0.8
		c0.2,2.1,1.4,3.8,2.7,5.4c0.2,0.3,0.4,0.5,0.6,0.8c0.1,0.2,0.3,0.3,0.4,0.5c0.2,0.2,0.4,0.3,0.6,0.3c0.5,0.3,1,0.6,1.5,0.8
		c0.8,0.4,1.6,0.6,2.6,0.8c4.1,0.5,9.4-1.3,12.5-4.3c2.5-0.3,4.9-1.1,7.5-1.2C169.4,254.3,169.9,253.2,169.2,252.6z"/>
	<path class="st7" d="M279.8,243.3c-0.2-0.3-0.7-0.5-1-0.5c-0.3-0.7-1.4-0.8-1.8,0c0,0,0,0-0.1-0.1c-1.9-0.8-6.7-3.9-9.6-3.9
		c-1.5-0.8-3.2-1.5-4.1-0.4c0,0,0,0.1-0.1,0.1c-2.1-1.1-4.4-1.8-6.7-1.4c-0.3,0-0.4,0.2-0.6,0.4c-0.3-0.1-0.7-0.1-0.9,0.1
		c-0.1-0.2-0.1-0.3-0.2-0.5c-0.4-1-2.1-0.3-1.8,0.7c0,0,0,0,0,0c-0.2-0.1-0.5-0.1-0.7,0.1c-0.2-0.1-0.4-0.1-0.6,0c0,0,0-0.1,0-0.1
		c-0.3-0.8-1.4-1-1.8-0.2c-0.2,0.1-0.4,0.3-0.4,0.6c-0.1,0.4-0.1,0.8-0.2,1.2c0,0.2,0,0.3,0,0.5c0,1.6,0.2,3.3,0.8,4.8
		c0.4,1.4,0.9,2.6,1.5,3.8c0.5,1.4,1.4,2.5,2.9,3.7c0.5,0.4,1,0.3,1.4,0c1.8,0.9,4.2-0.4,6.2-0.8c0.4-0.1,0.7-0.4,0.7-0.8
		c3.6-0.3,7.3-1.5,10.7-2.2c0.5-0.1,0.8-0.6,0.7-1.1c0.1,0,0.2-0.1,0.3-0.1c0.1,0,0.1,0.1,0.2,0.1c0.8,0.5,1.5-0.2,1.4-0.9
		c0.1,0,0.3,0,0.4-0.1c0,0,0,0,0,0c0.4,0.8,1.7,0.6,1.8-0.2c0-0.1,0-0.1,0-0.2c0,0,0.1-0.1,0.1-0.1c0.1-0.1,0.1-0.2,0.1-0.3
		c0.3,0.3,0.8,0.3,1.2,0.1c0,0,0.1,0,0.1,0c0.2,0,0.3-0.1,0.5-0.2c0.2-0.1,0.3-0.3,0.5-0.4C281.7,244.3,280.9,242.8,279.8,243.3z"/>
	<path class="st7" d="M167.1,251.5c-0.7-0.3-1.4-0.6-2-0.9c0,0,0,0,0,0c-2-1.1-4-2.1-6-3.1c-0.2-0.1-0.5-0.1-0.7-0.1
		c-0.5-0.2-1.1-0.5-1.6-0.7c-0.2-0.3-0.7-0.5-1.1-0.3c0,0-0.1-0.1-0.1-0.1c-0.1-0.1-0.2-0.3-0.4-0.3c-0.2-0.6-1-1-1.5-0.7
		c-0.4-0.3-1-0.4-1.4,0c-0.5,0-1,0.3-1,1c-0.1,0.3,0,0.7,0,1c0,0.8,0.1,1.5,0.1,2.3c-0.5,2.1,0.4,5.1,1.7,7.2c0.2,0.5,0.4,1,0.7,1.4
		c0,0.1,0.1,0.2,0.1,0.3c0.1,0.4,0.6,0.6,1,0.7c0.7,0.2,1.6-0.3,1.3-1.2c0,0,0,0,0,0c0.3,0.1,0.6,0,0.8-0.2c0.1,0,0.2,0.1,0.3,0.1
		c1.3,0,2.5-1.2,3.6-2.2c0.7-0.4,1.2-0.8,1.5-1.4c0,0,0.1-0.1,0.1-0.1c0.2-0.1,0.4-0.1,0.5-0.1c0.3-0.1,0.5-0.2,0.6-0.4
		c0.1,0,0.2,0,0.2-0.1c0,0,0,0,0.1,0c0.1,0,0.2-0.1,0.3-0.1c0.4-0.1,0.7-0.2,1.1-0.2c0.5,0.1,0.9,0.1,1.4,0.1
		C167.5,253.3,168,251.9,167.1,251.5z"/>
	<path class="st8" d="M159.4,256.4c0.6-0.5,1.2-1,1.9-1.4c0.3-0.2,0.7-0.3,1-0.5c1-1.8,1-4.5,0-6.3c-1.4-0.5-2.9-1-4.3-1.5
		C154.5,248.4,155,256.4,159.4,256.4z"/>
	<path class="st8" d="M264.3,237.8c-6.4,0-6.4,10,0,10C270.7,247.8,270.7,237.8,264.3,237.8z"/>
	<path class="st6" d="M257.8,240.1c-5.1,0-5.2,8,0,8C263,248.1,263,240.1,257.8,240.1z"/>
	<path class="st6" d="M155.9,248.8c-4.5,0-4.5,7,0,7C160.5,255.8,160.5,248.8,155.9,248.8z"/>
	<path class="st9" d="M418.5,162.5c-0.1-1.4-0.3-2.9-0.6-4.2c0.6-1.1,1.1-2.3,1.6-3.4c-0.1-0.6-0.1-1.2-0.2-1.8
		c-1.2-5.6-3-11.1-2.4-16.8c-0.4-0.7-0.9-1.4-1.4-2.1c-0.4-1.1-0.9-2.2-1.4-3.3c1.4-2.8,2.1-5.9,2.1-9.3
		c-0.4-27.8-15.4-54.4-39.3-68.6c-2.8-3.1-5.9-5.9-9.7-8.3c-3.5-2.2-7.4-3.7-11.4-4.5c-1.4-1.7-2.8-3.4-4.2-5.1
		c-4.3-5.3-8.2-10.7-14.1-14.5c-6.4-4.1-14.1-5.6-21.3-4c-8.8-4.3-18.6-5.7-29.3-2.4c-1.1,0.3-2.2,0.7-3.3,1.1
		c-1.9-0.4-3.8-0.7-5.7-0.9c-0.1,0-0.2-0.1-0.3-0.1c-5.3-1.7-11.3-2.5-17-1.9c-2.5-0.7-5-1.3-7.6-1.7c-4.3-0.8-8.9-0.6-13,0.7
		c-3.7-0.8-7.7-0.3-11.3,1c-8.3,0.2-16,3.5-22.7,8.3c-1.8,0.5-3.6,1.1-5.4,1.6c-1.9,1.9-4.5,2.9-6.8,4.2c-2.5,1.5-5,2.9-7.4,4.5
		c-0.5,0.4-1,0.8-1.4,1.2c-5.2,4.2-10.5,8.4-16,12.1c-0.2,0.1-0.4,0.2-0.6,0.2c-1.8,1.6-3.7,3.3-5.4,5c-3.1,2.9-5.9,6.2-8.5,9.6
		c-0.4,0.7-0.9,1.3-1.3,2c-3.2,5.1-6.2,10.3-9.1,15.5c-0.7,1.5-1.4,2.9-2,4.4c-1.6,3.8-3,7.8-4.3,11.8c0.1,0.6,0.3,1.2,0.4,1.8
		c0,0.1,0,0.1,0.1,0.2c-1.1,2.2-2.2,4.5-3.3,6.8c-0.1,0.4-0.2,0.8-0.4,1.2c-2.3,7.1-4.4,14.3-6.5,21.5c-0.9,3.3-1.8,6.6-2.7,9.9
		c-0.2,2.6-0.4,5.2-0.7,7.8c-0.2,1.5-0.3,2.9-0.7,4.3c0.5,2.4,1.1,4.9,1.9,7.3c0.2,0.5,0.3,1,0.5,1.5c-0.5,1.6-1,3.3-1.6,4.9
		c-0.4,1.2-0.7,2.4-0.8,3.7c-0.2,0-0.4,0-0.6,0.1c-0.1,0.4-0.3,0.7-0.7,0.9c-0.2,0.5-0.7,1-1.3,1c-1,0.1-1.2,0.1-1.8-0.1
		c-1.5,0.3-2.9,0.5-4.4,0.8c-1.5,0.4-2.9,0.9-4.1,1.2c-0.1,0.4-0.4,0.7-1,0.9c-1.2,0.3-2.5,0.5-3.7,0.8c-4.2,1.7-8.5,3.3-13.2,3.7
		c-0.3,0-0.6,0-0.8-0.1c-0.9,0.6-1.7,1.2-2.5,1.9c-5.1,1.5-10.1,3-15.2,4.4c-1.5,0.2-2.9,0.3-4.4,0.5c-0.6,0.1-0.9,0.6-1,1.1
		c-2.1,0.7-4.2,1.4-6.3,2.3c0,0,0,0,0,0c-0.3,0-0.5,0-0.8,0.1c-0.8,0.1-1.1,0.9-0.9,1.4c-0.1,0-0.1,0-0.2,0c-0.4,0-0.8-0.1-1.2-0.1
		c-0.4,0-0.7,0.2-0.8,0.5c-0.5,0.1-0.9,0.2-1.4,0.3c-8.7,0.4-16.9,2.9-24.3,7.4c-2.3,1-4.6,2.2-6.8,3.5c-0.2-0.6-1.1-1-1.7-0.4
		c-1.5,1.5-2.9,3-4.2,4.6c-0.4-0.2-0.9-0.1-1.2,0.4c-0.8,1.2-1.5,2.4-2.2,3.7c0.1-0.5,0.3-1,0.4-1.5c0.3-1.1-1.3-1.8-1.8-0.8
		c-0.4,0.8-0.7,1.6-1.1,2.4c-0.1,0.1-0.2,0.2-0.2,0.4c0,0.1,0,0.1,0,0.2c-0.8,2.1-1.4,4.3-1.7,6.5c-0.2,0.6-0.5,1.2-0.7,1.8
		c-0.2,0.4,0,0.8,0.4,1c-0.1,1.4-0.1,2.9,0,4.4c0.1,0.9,1.4,1.3,1.8,0.6c0.3-0.1,0.6-0.3,0.7-0.7c0.6-2.5,1.3-4.9,1.9-7.4
		c0.2,0,0.3,0,0.5-0.1c5.7-4.1,11.2-8.5,16.5-13c0.6-0.2,1.1-0.5,1.7-0.7c7.1-1.6,14.2-3.4,20.7-6.3c6.9,0.3,13.9,0,20.8-0.8
		c3.3-0.4,6.5-0.8,9.8-1.2c0.4-0.1,0.9-0.1,1.4-0.1c3.3,0.6,6.5,1.1,9.8,1.3c4.8,1.1,9.6,2.2,14.4,3.2c3.3,0.7,6.7,1.5,10,2
		c-0.4,0.5-0.2,1.4,0.5,1.7c8.8,3.5,18,5.5,27.2,7c6.1,2.1,12.3,3.7,18.8,4.4c0.7,0.1,1-0.5,0.9-1c2.3,0.6,4.6,1.2,6.9,1.8
		c0.1,0.1,0.2,0.2,0.4,0.2c0.7,0.2,1.4,0.5,2.1,0.7c0.1,0.3,0.3,0.6,0.7,0.6c1.4,0.3,2.9,0.6,4.3,1c3.3,1,6.6,1.9,9.9,2.7
		c1.8,1.2,3.8,2.1,6,2.7c17.7,5.1,35.5,7.4,53.5,7.3c2.9,1.5,6.3,2.4,10,2.4c2.8,0,5.5-0.6,8.1-1.6c3.8,0.5,7.8,0.2,11.9-0.9
		c1.9-0.5,3.8-1.1,5.6-1.8c2.2,0.1,4.4-0.2,6.5-1c4.9-1.8,9.7-3.8,14.4-6c13.7-2.1,26.6-9.5,37.6-18.3c0.3-0.1,0.7-0.2,1-0.4
		c7.4-3,12.5-6.5,15.9-13.7c0.7-1.1,1.4-2.2,2-3.3c3.2,1.9,6.9,3,10.9,3c0.4,0,0.8,0,1.2,0c2.8,1.3,5.8,2,9.2,2
		c1.6,0,3.2-0.2,4.7-0.6c1.9,1.5,5,1.7,7.9,1.6c3.5,0.8,7.1,1.4,10.6,1.9c0,0,0,0,0,0c0,0,0,0,0,0c0.1,0,0.2,0,0.3,0
		c0.5,0.1,0.8-0.3,0.9-0.7c1.3-0.2,2.6-0.4,3.9-0.9c0.6,0.3,1.4,0,1.5-0.8c0-0.3,0.1-0.7,0.1-1c0.4-0.1,0.8-0.4,0.8-0.9
		c-0.1-4.6-0.5-9.1-1.2-13.6C418.2,167.5,418.6,165,418.5,162.5z M132.6,198.1c1.2,0.2,2.4,0.3,3.6,0.5c0.6,0.3,1.2,0.6,1.8,0.9
		C136.2,199.1,134.4,198.6,132.6,198.1z"/>
	<path class="st10" d="M496.3,439.3v-45.7c-0.1-0.1-0.2-0.2-0.3-0.4c-0.1-0.7-0.5-1.4-1.2-1.9c-0.7-0.6-1.4-1.2-2.2-1.8
		c-2.7-2.9-5.6-5.8-8.5-8.5c-1.2-1.1-2.5-1.3-3.7-1c-0.1-0.1-0.1-0.2-0.2-0.4c-0.3-0.5-0.7-1-1.1-1.5c0-1.6-0.4-3.1-1-4.8
		c-0.6-1.6-2.2-2.6-3.7-2.8c-0.4-0.2-0.7-0.3-1.1-0.4c-3.5-4.7-7.2-9.3-11-13.8c-0.3-0.3-0.6-0.6-0.9-0.8c-0.3-1-0.8-1.9-1.7-2.7
		c-3.8-2.9-10.6-2.8-15.1-2.7c-4.9,0-5.1,7.1-0.8,7.9c-0.3,1-0.3,2.2,0.4,3.1c0.4,0.5,0.7,1,1.1,1.6c0.6,1.8,1.6,3.4,2.9,4.7
		c0.8,0.8,1.9,1.2,3.1,1.2c0.7,0.1,1.4,0,2.1-0.3c-0.5,1.1-0.6,2.5,0.2,3.5c0.3,0.4,0.7,0.8,1,1.2c1.3,1.8,3.2,4.5,5.6,4.8
		c0.4,0.1,0.8,0.1,1.2,0.1c-0.4,0.4-0.7,0.8-1.1,1.2c-2.9,3.2-5.8,6.4-8.6,9.7l-0.3,0.3c-0.3,0.3-0.5,0.6-0.7,0.9
		c-4.1,4.9-8,9.9-11.8,15.1c-15,11.3-29.6,23-43.9,35.1c-0.2,0.1-0.4,0.2-0.7,0.3c-7.8,4.1-15.6,8.3-23.2,12.6
		c-0.5,0.2-0.9,0.4-1.4,0.5c-4.5,1.1-8.9,2.1-13.4,3c-9.4,2-18.7,4-28,6.2c-7.1,1.7-14.3,3.6-21.6,4.1c-3.7-0.2-7.5-0.3-11.2-0.5
		c-1,0-1.9,0.3-2.5,1c-3.6-1.5-7.3-1.4-10.6-0.1c-1.2-0.4-2.6-0.1-3.7,1c-0.8,0.8-1.4,1.7-1.9,2.5c-2.8-2.7-9.2,0.9-11.7,2.9
		c-4.8,3.9-10.1,5.4-14.4-0.2c-1.1-1.4-3.4-1.4-4.8-0.6c-3.5,1.8-7-2.7-10.5-3.5c-0.2,0-0.3,0-0.5-0.1c-0.7-0.4-1.6-0.5-2.7-0.2
		c-1,0.1-2,0.3-2.9,0.5c-1.2-0.5-2.4-1.8-3.3-2.1c-1.3-0.5-2.5-0.6-3.8-0.4c-1.3,0.1-5.5,2.5-6.8,2.3c-0.6-1.4-2-2.7-3.6-2.5
		c-4,0.5-8.9,1.4-12.5-0.8c-2.3-1.4-3.1-3.7-5.2-5c-0.2-0.5-0.5-1.1-0.9-1.6c-2.3-2.9-5.9-5.3-8.7-7.8c-0.1-0.1-0.3-0.2-0.4-0.3
		c0.2-1.3,0.6-2.5,1.1-3.8c0.7-1.7-0.1-3.2-1.3-4.1c-0.8-3.5-6.4-3.2-7.8,0.2c-2.2,5.5-5,10.7-8.3,15.7c-0.4,0.6-0.6,1.2-0.6,1.7
		c-0.6,0.8-1.2,1.6-1.8,2.4c-0.5,0.2-1,0.5-1.4,1c-8,9.6-15.4,19.6-22.2,30.1c-0.5,0.3-1,0.8-1.4,1.6c-0.9,1.9-1.8,3.7-2.7,5.6
		c-1.3,2.2-2.5,4.5-3.5,6.9c-1.4,3.3-2.5,6.6-3.3,10.1c-1.2,3.6-2.3,7.3-3.3,11h29.9c0,0,0,0,0,0c0.2,0,0.3,0.1,0.5,0.1
		c0.1,0,0.2,0,0.2,0h338.2v-58.6c0-0.1,0-0.2,0-0.2v-32.1C496.3,439.5,496.3,439.4,496.3,439.3z M453.8,360.1
		c-0.3-0.6-0.7-1.1-1.1-1.7c0.7,0.1,1.3,0.3,1.6,0.6C453.9,358.9,453.8,359.4,453.8,360.1z M273,479.3c-0.7,0-1.3,0.2-1.8,0.5
		c-0.1,0-0.2,0-0.4,0c0.9-0.6,1.9-1.1,3-1.1c0,0.2,0.1,0.4,0.1,0.6C273.6,479.3,273.3,479.3,273,479.3z M390.1,459.2
		c-0.4,0.2-0.7,0.4-1.1,0.6c0.3-0.2,0.7-0.5,1-0.7c0.9-0.5,1.8-1.1,2.7-1.6C391.8,458.1,390.9,458.7,390.1,459.2z"/>
	<path class="st11" d="M125.1,208.6c-2-3.4-1.4-8.6-4-11.5c-2.9-3.2-9.5-3.1-13.4-3.7c-11.3-1.8-22.8-3.1-34.3-2.7
		c-13.8,0.5-30.9,3.4-43.1,11.8c-1-0.5-2.3-0.5-3.5,0.3c-2.2,1.6-5,4.2-6.3,7.1c0,0.1-0.1,0.1-0.1,0.2c-3.3,4.7-6.6,14.2,0.5,17.4
		c0.9,1.4,1.9,2.6,3.1,3.3c3.8,2.5,8.7,2.2,13.1,2c6.1-0.2,12.1-0.8,18.1-1.6c11.4-1.4,22.9-2.8,34.1-5.6
		c11.4-2.9,22.5-7.3,33.5-11.3C125.1,213.6,126.4,210.9,125.1,208.6z"/>
</g>
<g id="Shadows">
	<path class="st12" d="M246.8,464.9c-0.8-0.4-1.7-0.7-2.4-1c-0.4,0.2-0.8,0.5-1.1,0.8c1.1,0.3,2.2,0.5,3.3,0.7
		C246.6,465.3,246.7,465.1,246.8,464.9z"/>
	<path class="st12" d="M460.6,422.7c-26.2,18.9-54.6,34.5-83.1,49.7c-5.3,2.8-10.6,5.7-15.9,8.5c4.4-4.5,8.8-8.8,13.6-12.8
		c5.5-4.6,11.6-8.2,17.9-11.4c2.8-1.1,5.5-2.4,8.2-3.9c0.3-0.2,0.5-0.3,0.8-0.5c0.9-0.5,1.9-0.9,2.8-1.4
		c18.2-8.9,36.6-18.3,50.4-33.7c3.4-3.8-2.2-9.5-5.7-5.7c-14.1,15.6-33.1,24.7-51.7,33.8c-2.6,1.3-5.2,2.6-7.8,3.9
		c-6.6,2.7-13.4,4.3-20.5,5.4c-3.8,0.6-7.4,1.5-10.9,2.7c-0.1,0-0.2,0-0.3,0c-6.3,0.9-12.3,2.4-18.1,4.7c-12.5,2.2-25,3.7-37.7,4.7
		c-4-0.5-8.1-0.8-12.1-0.9c-0.7,0-1.3,0.1-1.8,0.3c-0.2,0.1-0.4,0.2-0.6,0.3c-0.5,0.4-0.9,0.9-1.1,1.4c0,0,0,0-0.1-0.1
		c-0.2,0.2-0.4,0.4-0.7,0.6c-0.2,0.2-0.5,0.3-0.7,0.4c-1.3-0.8-2.7-1.5-4.1-1.6c-2.1-0.1-3.6,1.5-3.5,3.5c0,0.2,0,0.5,0.1,0.7
		c-0.3,0.1-0.5,0.2-0.8,0.3c-0.2,0.1-0.3,0.2-0.5,0.3c0,0-0.1,0-0.1,0.1c-1.7,0.2-3.3,0.4-5,0.5c-1.3-0.2-2.6-0.2-3.5,0.6
		c-0.2-0.1-0.3-0.3-0.5-0.4c0,0,0,0,0,0c0,0,0,0,0,0c-0.1-0.1-0.3-0.2-0.4-0.3c-0.8-0.6-2-0.2-2.6,0.5c-0.6,0.8-0.5,1.9,0.2,2.6
		c0.5,0.5,1,1,1.5,1.4c0,0.1,0,0.1,0,0.2c-4.4,1.4-8.8,2-13.2,0.6c-0.4-0.6-0.9-1.1-1.4-1.6c-1-1.8-3.2-3-4.9-1.3
		c-0.1-0.1-0.2-0.2-0.3-0.3c-1.1-1.3-2.7-0.5-3.2,0.7c-0.6-0.7-0.7-1.8-0.3-2.7c-0.3-0.1-0.6-0.1-0.8-0.2
		c3.5,30.4,47.8,39.2,72.7,34.9c17.3-3,33.6-11.1,49-19.1c16.3-8.5,32.6-17.2,48.6-26.3c17.8-10.1,35.3-20.8,52-32.8
		C468.8,426.6,464.8,419.7,460.6,422.7z"/>
	<path class="st12" d="M150.2,530.6c2.9-10.5,5.8-21,8.7-31.6c0.4-1.6-0.9-2.6-2.2-2.4c-0.7-0.7-1.8-0.8-2.6,0.1
		c-4.9,5.6-7,12.3-8.5,19.4c-1,4.8-1.9,9.6-2.5,14.5H150.2z"/>
	<path class="st12" d="M418.9,171.9c0.3-5-0.1-10.1-0.7-15.1c0-0.4-0.1-0.8-0.1-1.2c-0.1-1.6-0.2-3.2-0.5-4.8
		c-0.1-8.6-0.2-17.4-1.9-25.6c-1.3-6.1-3-12.1-4.5-18.2c-1.4-5.7-2.4-12-4.7-17.5c-1.7-4.2-5-7-8.3-10c-4.6-4.2-9.1-8.4-13.7-12.6
		c-8.2-7.5-16.4-15.1-26.1-20.5c-0.8-0.5-1.7-0.3-2.2,0.2c-0.8,0.4-1.5,1.2-1.3,2.3c3,16,4.6,32.3,4.9,48.5
		c-1.1,6.7-2.3,13.4-4.7,19.8c-2.2,6.1-5.3,11.6-8.9,16.9c0.2-0.9,0.4-1.9,0.5-2.8c2.3-11.5,6.1-24.6,4.5-36.5
		c0.1-0.6,0.1-1.3,0.2-1.9c0-0.4-0.1-0.9-0.2-1.3c1.3-0.9,1-3.6-1.1-3.7c-5.5-0.4-10.8,1-15.1,4.4c-3.6,2.9-2.8,4.7,0,7.7
		c3.5,3.8,5.1,8.3,1.1,12.4c-2.2,2.3-5.1,4.1-7.8,5.8c-6,4-12.4,7.1-19.3,9.5c-12.6,4.4-25.9,6.7-38.8,10.2
		c-13.5,3.7-26.2,9.2-38,16.8c-2.2,1.4-0.2,4.8,2,3.5c0.3-0.2,0.6-0.3,0.9-0.5c0.6,1.1,1.6,2.1,3,2.2c7.1,0.7,14.2,1.9,21.2,3.2
		c0.3-0.3,0.6-0.6,1.1-0.7c3.9-0.9,8.2,0.3,12.2,1.7c4.7,0.2,9.6,1.5,14.4,2.8c5.1,0.5,10.4,1.9,15,2.6c6,0.9,11.9,1.7,17.9,2.5
		c1.1,0,2.2-0.1,3.2-0.3c0.2,0.4,0.5,0.7,0.8,0.9c2,0.3,3.9,0.6,5.9,0.9c0.2,0,0.4,0.1,0.6,0.2c1.8,0.1,3.5,0.1,5.3,0
		c0.4,0.5,1,1,1.9,1.1c5.4,1,10.9,1.9,16.4,2.6c3,0.4,6.5,1.5,9.4,0.5c0.4,0.3,0.8,0.6,1.2,0.8c-10,10.5-22.4,18.1-35.5,24.2
		c-15.5,7.2-32.2,13.4-48.7,17.8c-19.3,5.1-39.5,1-58.7-2.9c-19.4-4-38.4-9.3-57.4-14.8c-21.1-6.1-42.2-13.1-64-15.7
		c-2.2-0.3-3.4,1.1-3.7,2.7c-3.2-0.7-6.4-1.3-9.7-1.7c-1.3-0.2-2.7-0.3-4-0.5c-5.3-0.2-10.7-0.2-16,0.2c-0.4,0-0.8,0-1.1-0.2
		c-4.2,0.6-8.4,1.4-12.6,2.2c-10.8,2.1-21.8,5.9-31.1,11.8c-6.9,4.4-14.3,13.7-9.9,22.3c4.5,8.7,19.4,8.1,28.3,7.3
		c3.8,0.2,7.6,0.2,11.4-0.1c6.4-0.4,12.8-1.3,19-2.7c4.1-0.9,8.1-2,12.1-3.2c7.1-1.3,14.1-3.1,21-5.5c1.1-0.4,1.8-1.2,2.2-2
		c0.3,0,0.5,0,0.8,0c2.6-0.2,5-0.6,7.4-1.3c1.1-0.2,2.2-0.3,3.3-0.4c1.5-0.2,2.9-0.7,4.2-1.4c1.7,0.1,3.4-1.3,3.5-3.4
		c0.8-1.8,0.6-3.9-1.4-6.1c0-0.1-0.1-0.1-0.2-0.1c0-0.4,0-0.9-0.1-1.3c-0.5-1.4-0.6-2.8-0.3-4.2c12.4,3.1,24.7,7,36.9,10.5
		c19.9,5.7,39.8,11.4,60.1,15.5c18.7,3.8,38.6,7.7,57.5,3.8c17-3.6,34.1-10.5,50-17.4c16.1-6.9,31.5-15.9,43.4-28.9
		c3.8,2.1,8.5,1.8,13.2,1.4c7.9,2.9,16.1,6.1,24.4,6.9c1.5,0.1,2.5-0.6,3-1.7c0.4,0.1,0.9,0.2,1.3,0.2c2.8,0.4,4.8-1.8,4.3-4.2
		c0.3-0.8,0.7-1.6,1-2.4c0.3-0.8,0.2-1.6-0.2-2.4C419.2,178.3,419.1,174.8,418.9,171.9z"/>
	<path class="st12" d="M117.4,190.6c-24.1-7-49.6-6.3-73.3,1.6c-0.5-0.1-1.1,0-1.7,0.2c-2,0.8-4,1.7-5.9,2.6
		c-1.1,0.5-2.2,0.9-3.3,1.4c-0.5,0.2-0.9,0.5-1.2,0.8c-0.2,0.1-0.4,0.2-0.5,0.3c-4.6,2.4-0.5,9.3,4,6.9c0.7-0.4,1.4-0.7,2-1.1
		c2.2-0.7,4.2-1.6,6.2-2.6c5-1.8,10.1-3.3,15.2-4.4c0.9,1,2.2,1.5,3.8,1.2c7.9-1.5,15.3-2.1,23.4-2.2c6.6-0.1,13,0.8,19.6,1.1
		c0.5,0,0.9,0,1.3-0.2c2.8,0.6,5.6,1.3,8.3,2C120.3,199.8,122.4,192,117.4,190.6z"/>
	<path class="st12" d="M454.5,361.2c-0.8-1-1.7-2-2.5-3c-0.6-0.7-1.9-1.2-2.8-1.2c-1,0-2.2,0.4-2.8,1.2c-0.7,0.8-1.2,1.8-1.2,2.8
		c0,1.1,0.5,2,1.2,2.8c0.8,1,1.7,2,2.5,3c0.6,0.7,1.9,1.2,2.8,1.2c1,0,2.2-0.4,2.8-1.2c0.7-0.8,1.2-1.8,1.2-2.8
		C455.6,362.9,455.2,362,454.5,361.2z"/>
	<path class="st12" d="M463.2,373.8c-0.1-0.2-0.2-0.3-0.3-0.4c-0.1-0.3-0.2-0.6-0.5-1c-0.4-0.5-1.1-0.3-1.4,0.1
		c-1.3-1.3-2.9-2.4-4.3-3.6c0,0,0,0,0,0c-0.2-0.5-0.8-0.6-1.2-0.4c-0.7-0.6-2,0-1.6,1c0,0.1,0.1,0.2,0.1,0.2c0,0,0,0,0,0
		c0,0,0.1,0.1,0.1,0.1c0.2,0.4,0.5,0.8,0.7,1.2c0.1,0.1,0.1,0.2,0.2,0.3c0.1,0.1,0.2,0.2,0.3,0.3c0.3,0.3,0.6,0.6,0.9,0.8
		c1.2,2.1,3.1,4.5,4.9,3.5c0.3-0.2,0.5-0.4,0.7-0.7C462.6,375.6,463.8,374.7,463.2,373.8z"/>
</g>
<g id="Shirt_Lines">
	<path class="st13" d="M129.4,530.6c0.8-4.5,1.8-8.9,3.2-13.3c3.5-10.2,9.2-19.4,15.3-28.2c11.5-16.4,24.9-31.4,32.6-50.1
		c1-2.4-2.9-3.4-3.9-1.1c-8.1,19.4-22.6,34.8-34.2,52c-5.4,8-10.2,16.4-13.5,25.5c-1.7,4.9-2.8,10-3.7,15.1H129.4z"/>
	<path class="st13" d="M397.1,382.1c-8.7,16.2-19,31.9-32.7,44.4c-6.9,6.3-14.5,11.6-22.9,15.7c-4.9,2.4-10,4.4-15.1,6.3
		c-5.9,2.2-12.1,4.6-18.5,3.8c-2.5-0.3-3.6,3.5-1.1,3.9c10.4,1.4,20.8-3.6,30.2-7.5c9.6-4.1,18.6-9.4,26.6-16.1
		c15.7-13.1,27.3-30.4,36.9-48.3C401.8,381.8,398.3,379.8,397.1,382.1z"/>
	<path class="st13" d="M496.3,395.4v-5.6c-3.4-3.2-7-6.1-10.8-8.8c-2.4-1.6-4.1-2.7-5.2-5.5c-0.3-0.9-0.4-2-0.8-2.9
		c-1.3-2.8-4-4.4-6.4-6.1c-3.8-2.7-6.3-6.1-8.7-10c-1.4-2.3-2.7-4.8-5.1-6.2c-5.3-3.2-14.2-2-19.9-0.2c-1.7-2.4-3.4-4.9-5-7.3
		c-3.7-5.6-7.1-11.4-10.5-17.2c-3.6-6.3-7.3-12.3-8.3-19.7c-0.3-2.5-4.2-1.5-3.9,1.1c1,7.2,4.4,12.9,7.9,19.1
		c3.6,6.4,7.3,12.6,11.3,18.7c7.8,12,16.6,23.3,26.8,33.4c-0.6,0.5-1.1,0.9-1.3,1.2c-4.2,4.6-7.1,10.3-10.9,15.2
		c-4.7,6.2-10.4,11.6-16.4,16.6c-24.3,20.1-52.1,38.9-83,46.5c-8.6,2.1-17.4,3.6-26.1,5c-10.4,1.6-21.2,4-31.7,1.7
		c-2.5-0.6-3.6,3.3-1.1,3.9c9.2,2,18.3,0.7,27.5-0.7c9.1-1.4,18.2-2.8,27.1-4.7c17.6-3.8,33.9-10.4,49.3-19.8
		c14.6-8.9,29.1-19,42.1-30c6.1-5.2,11.8-10.9,16.6-17.5c4.8-6.7,8.4-14.6,16.2-18.4c0.6-0.3,1-1.1,1-1.7c-0.1-2.4-1.2-4-3.2-5.4
		c-1.2-0.8-2.5-1.3-3.8-2c-3-1.7-2.9-2.7-3.4-6.1c-1.1-6.6-7.5-9.4-12.7-5.7c-0.6-0.8-1.3-1.7-1.9-2.6c3.4-0.8,6.8-1,10.3-0.8
		c5.4,0.2,7,3,9.5,7.1c1.4,2.3,3,4.6,4.9,6.5c2.1,2.2,4.9,3.5,7.2,5.6c2.7,2.5,2.2,5.7,4.4,8.4c1.4,1.8,3.5,2.9,5.3,4.1
		c2.4,1.7,4.7,3.4,6.9,5.3c6.4,13.8-12.3,31.7-21.2,40c-12.3,11.4-26,21.7-40.5,30.2c-15.4,9.1-32.1,15-49.4,19.4
		c-17.9,4.5-36.2,7.9-54.8,8.3c-20.4,0.4-40.8-3.1-59.2-12.2c-1.1-0.6-2.2,1.2-1,1.7c35,17.3,74.9,13.9,111.8,5
		c18.8-4.5,36.9-10.7,53.6-20.5c15.5-9.1,30.4-20.3,43.4-32.9c8.2-7.9,22.9-23.1,20.3-36.3C494.3,393.5,495.3,394.5,496.3,395.4z
		 M456.9,370.8c0.8,0.5,5.3,2.1,5.4,3.1c0,0.2-0.7,0.8-1.7,1.6c0,0,0,0,0,0c-2.2-2.2-4.3-4.4-6.4-6.7
		C455.1,369.6,456,370.3,456.9,370.8z M448.7,359.9c2.5-0.9,3.7-0.2,3.4,1.9c0.4,1.2,0,2.3,0.3,3.5c0.2,0.8,0.4,1.5,0.8,2.2
		c0.2,0.3,0.4,0.5,0.6,0.8c-2.5-2.8-4.9-5.6-7.2-8.5C447.2,359.7,448,359.8,448.7,359.9z"/>
	<path class="st13" d="M150.8,510.8c0.7-2.1,3-9.3,5.7-11.6c1.8,4.6-3.3,16.5-4.4,19.9c-1.3,3.9-2.9,7.7-4.5,11.5h4.6
		c4.2-9.2,7.8-19.1,8.3-28.6c0.2-2.9-0.5-9.1-5-7.1c-4.5,2-7,10.5-8.5,14.8C146,512.1,149.9,513.2,150.8,510.8z"/>
</g>
<g id="Beard_base">
	<path class="st14" d="M143.2,211.2c-3.2-6.7-11.4-11-18.3-12.6c-0.6-0.1-1.1,0.3-1.2,0.8c-0.8,0.3-0.9,1.6,0.1,1.9
		c0.4,0.1,0.7,0.2,1.1,0.4c-0.2,0.3-0.3,0.8,0.1,1.2c0.2,0.2,0.4,0.4,0.5,0.5c-0.5,0.3-0.7,1.1-0.2,1.6c0.1,0.1,0.1,0.1,0.2,0.2
		c-0.5,0.3-0.7,1.1-0.2,1.6c0.3,0.3,0.7,0.6,1,0.9c-0.3,0.4-0.3,0.9,0.1,1.2c0.1,0.1,0.1,0.1,0.2,0.2c0,0,0,0,0,0
		c0,0,0.1,0.1,0.1,0.1c0.6,0.5,1.2,0.9,1.8,1.4c-0.8,0.2-1.2,1.3-0.3,1.8c0,0,0.1,0,0.1,0c-1-0.3-1.8,1.2-0.8,1.8
		c3.7,2.1,8.6,5.2,13.1,4.6c0.6-0.1,1.1-0.3,1.5-0.5c0.2-0.1,0.4-0.2,0.6-0.4C145,216.3,144.2,213.3,143.2,211.2z"/>
	<path class="st14" d="M402.5,354.6c-0.5-2.8-1.1-5.7-1.6-8.5c0.3-0.3,0.5-0.6,0.5-1c0.1-0.2,0.2-0.4,0.3-0.7
		c0.7-4.7,0.5-9.4-0.7-13.9c0-3.1-0.8-6.2-2.3-9c-0.4-0.9-1.2-1.1-2-1c-0.3-0.6-0.7-1.1-1-1.8c0-1,0-2,0-3c0.2-3.2,0.1-6.4-0.2-9.6
		c0-0.3-0.1-0.5-0.2-0.7c-0.2-3.3-0.6-6.6-1.1-9.9c-0.2-1.3-1.4-1.7-2.4-1.3c0-0.4-0.1-0.7-0.1-1.1c-0.1-0.9-0.6-1.3-1.2-1.4
		c0.5-6.7,0-13.4-1.4-20c-0.2-0.9-0.8-1.3-1.5-1.4c-0.6-3.5-1.2-7.1-1.8-10.6c-0.1-0.6-0.4-1-0.8-1.2c-0.1-0.2-0.1-0.4-0.1-0.6
		c1.3-5.7,2.3-11.8-0.4-16.5c-0.2-0.3-0.4-0.5-0.6-0.7c0-0.5-0.2-0.9-0.5-1.3c0.4-1,0.1-2.3-0.9-2.7c0.2-0.7,0.2-1.4-0.2-2
		c0.2-0.8,0-1.9-0.8-2.3c0.8-0.5,1-1.5,0.8-2.3c0.1-0.2,0.1-0.5,0.1-0.8c0.6-1,0.5-2.4-0.3-3.2c0.8-0.4,0.7-1.9-0.4-1.9
		c-0.3,0-0.5,0.1-0.6,0.2c-0.1-0.3-0.4-0.6-0.9-0.6c-0.6,0-0.9,0.4-0.9,0.8c-0.1-0.2-0.3-0.4-0.4-0.6c0.3-0.2,0.5-0.7,0.4-1.1
		c0.6,0,1.1-0.3,1.4-0.7c-0.1,0.6,0.2,1.3,0.9,1.3c1.3,0,1.3-1.9,0.1-2c1.8-0.4,1.9-3.1,0.3-3.8c1.2-0.3,1.6-1.5,1.4-2.5
		c1.2-0.6,1.4-2.3,0.5-3.2c0.2,0,0.3,0,0.5,0c3,0,3.2-4.3,0.6-4.9c0.1,0,0.2,0,0.3-0.1c0.1,0,0.2-0.1,0.4-0.1c0.1,0,0.2-0.1,0.4-0.2
		c0.4,0.6,1,1,2,1c2.6,0,3.1-3.2,1.5-4.5c2.5,0,3-2.9,1.7-4.3c0.4-0.1,0.7-0.4,0.9-0.6c0.2,0,0.5,0.1,0.8,0.1c2.4,0,3.5-1.9,3.4-3.8
		c0.4,0.3,0.9,0.5,1.5,0.5c1.3,0,2-0.8,2.3-1.7c2.4-1.7,1.8-6.4-1.9-6.4c-0.1,0-0.1,0-0.2,0c-0.5-0.5-1.3-0.8-2.2-0.8
		c-1.8,0-2.9,1.2-3.3,2.6c-0.5-1-1.5-1.8-3-1.8c-0.6,0-1,0.1-1.5,0.3c-0.4-0.5-1-0.9-1.9-0.9c-1.1,0-1.9,0.6-2.2,1.4
		c-0.2-0.1-0.4-0.1-0.5-0.2c-0.3-1.1-1.2-1.9-2.4-1.9h-0.2c-0.8,0-1.6,0.4-2,1.1c-0.1-1.6-1.2-3.2-3.3-3.2c-1.2,0-2,0.5-2.6,1.2
		c-0.4-0.7-1.1-1.3-2.1-1.3c-1.1,0-1.8,0.6-2.2,1.4c-0.9,0.1-1.6,0.7-1.9,1.4c-0.1,0-0.3,0-0.4,0c-2.9,0-3.9,3-3.1,5
		c-0.8,0.9-0.8,2.4-0.1,3.3c-1.3,1.4-0.7,4.3,1.8,4.3c0,0,0,0,0,0c0.2,1.1,1,2,2.4,2c0.2,0,0.3,0,0.5,0c0.1,1,0.6,1.9,1.7,2.2
		c-1.8,0.1-2.5,2-2.1,3.4c-0.6,1-0.2,2.6,1.1,3c-0.1,0.4-0.1,0.8,0,1.2c-2.5,0.2-2.8,3.6-1,4.6c-2.2,0.4-2.1,4,0.4,4
		c0.1,0,0.2,0,0.3,0c0.3,0.4,0.8,0.7,1.5,0.7c0.1,0,0.3,0,0.4,0c0.2,0.8,0.8,1.4,1.8,1.4c0.6,0,1-0.2,1.4-0.5c0,0.1,0,0.1,0,0.2
		c0.1,0.3,0.2,0.7,0.4,1c0,0.6,0.2,1.1,0.6,1.5c0,0.1,0.1,0.2,0.1,0.3c0.1,0.2,0.3,0.4,0.5,0.6c-0.4,0.3-0.5,0.8-0.3,1.3
		c0,0.1,0,0.1,0,0.2c-0.2-0.1-0.4-0.1-0.7-0.1c-0.1,0-0.3,0-0.4,0c0.3-0.6,0.3-1.4,0-1.9c-0.2-0.4-0.6-0.6-0.9-0.8
		c-0.3-0.4-0.8-0.8-1.5-0.8c-0.1,0-0.1,0-0.2,0c-0.3-0.3-0.7-0.4-1.3-0.4c-0.8,0-1.3,0.4-1.6,0.8c-0.1-0.9-0.7-1.7-1.9-1.7
		c-2.3,0-2.5,3.2-0.7,3.9c-1,1.1-0.6,3.4,1.4,3.4c0.1,0.2,0.1,0.3,0.2,0.5c-0.4,0-0.6,0.2-0.7,0.5c-0.1,0-0.3,0-0.5,0
		c-0.3,0-0.6,0.1-0.9,0.2c-0.3-0.4-0.7-0.8-1.2-0.9c-1.1-0.3-2.1,0.3-2.5,1.4c0,0.1-0.1,0.2-0.1,0.2c-0.3,1,0.4,2.2,1.4,2.5
		c0.6,0.1,1.2,0,1.6-0.3c0,0,0,0.1,0.1,0.1c-0.4,0.2-0.7,0.6-0.9,1c-0.4,0.4-0.5,1-0.1,1.5c-0.1-0.1-0.3-0.1-0.5-0.1
		c-1.3,0-1.3,1.9-0.1,2c0,0.5,0.2,1,0.5,1.4c-2.2,0.8-2,4.5,0.6,4.8c-1.6,0.6-1.9,2.6-1,3.9c-0.1,0.7,0.1,1.5,0.6,1.9
		c0,0.1,0,0.1,0,0.2c0.3,1.4,0.5,2.8,0.8,4.1c0.1,0.4,0.1,0.9,0.2,1.3c0.7,4.1,1.3,8.1,1.8,12.2c0.1,1.1,0.9,1.7,1.8,1.9
		c0.5,2.7,1,5.4,1.5,8.1c-0.1,0.3-0.1,0.5-0.2,0.8c-0.9,3.7-1.5,7.5-1.9,11.4c0,0.3,0,0.6,0.1,0.9c0,0.1,0,0.2,0,0.3
		c-0.4,0.1-0.8,0.2-1.1,0.4c-0.1,0-0.2,0-0.3,0c-0.6,0.1-1.1,0.3-1.6,0.5c-0.2,0.1-0.3,0.1-0.5,0.2c-2.2,1.5-3.2,3.5-4.1,6
		c-0.3,0.9,0.2,1.8,0.9,2.2c0,0.5-0.1,0.9-0.1,1.3c-0.3,1-0.4,2-0.5,3c-0.6-0.8-1.3-1.5-2-1.9c-0.6-0.4-1.4-0.3-2,0
		c-1.2,0.6-2,2-2.4,3.7c-0.3,0.2-0.5,0.5-0.6,0.9c-0.7,0.2-1.3,0.8-1.4,1.8c-0.1,2-0.2,4-0.3,6c-0.1,0.6-0.1,1.2-0.2,1.8
		c-3.1,3.4-6,7-8.9,10.5c-0.4,0-0.8,0-1.2-0.1c-2-0.4-3.9,0.3-5.3,1.5c-2.8,0.2-5.2,0.6-7.8,3c-3.8,3.5-4.9,8.2-5.4,13.1
		c0,0.2,0,0.4,0,0.6c-0.5,0.3-1,0.6-1.4,1.1c-1.1,1.1-1.9,2.2-2.6,3.4c-0.7,0.6-1.3,1.4-1.7,2.4c-0.6,1.5-1,3-1.3,4.6
		c-0.5,2.4-0.7,5,0.1,7c-0.2,0.7-0.4,1.4-0.6,2.1c-0.7,1.8-1.6,0.8-3.7,2.1c-3.6,2.1-5,7.6-6.4,11.1c-0.2,0.5-0.4,1-0.5,1.4
		c-1.1-0.5-2.3-0.7-3.6-0.8c-0.3,0.1-0.5,0.3-0.8,0.3c-0.6,0.2-1.2,0.1-1.8,0c-0.2,0.1-0.5,0.1-0.7,0.2c0.1-0.1,0.1-0.2,0.2-0.4
		c-1.2-0.4-2.2-1.3-2.4-2.5c-0.3-2.2-0.1-4.1,1-6c0.7-1.3,1.7-2.4,2.4-3.7c0.1-0.2,0.2-0.3,0.4-0.5c-0.3-0.6-0.6-1.1-0.9-1.6
		c0.4-1.7,0.5-3.3,0.5-5c1.6-4.4-0.1-9-1.8-13.3c-0.5-1.2-1.5-1.7-2.4-1.7c-0.4-0.4-1-0.6-1.6-0.7c-1.3-2.2-3-4.4-5.2-4.8
		c-0.9-0.9-1.9-1.7-2.9-2.5c-0.1-0.9-0.6-1.8-1.7-2.2c-1.7-0.6-3-1.4-4.5-2.4c-1-0.6-1.9-0.5-2.6,0.1c0,0,0,0,0,0
		c-0.9-0.5-1.9-0.6-2.9-0.4c-1.6,0.1-3.1,0.8-4.2,2.2c-0.7-0.3-1.4-0.7-2-0.9c-1.4-0.5-2.5,0.4-2.9,1.6c-1-0.3-2-0.3-3.2,0
		c-1.4-0.8-2.9,0-3.4,1.3c-2.4,0-4.7,0.3-6,1.6c-1.2,0.3-2.5,0.6-3.7,1c-0.3,0.1-0.6,0.2-0.8,0.4c-0.5,0.1-0.9,0.1-1.4,0.1
		c-1.1,0.1-1.8,0.7-2.1,1.4c-2,0.2-4,0.5-5.9,1.1c-0.1,0-0.2,0-0.3,0c-0.8,0.1-1.5,0.4-1.9,1c-0.3-0.1-0.6-0.3-0.9-0.4
		c-3-1.3-6.6-3.2-9.9-2.4c-0.7,0.2-1.2,0.7-1.5,1.2c-0.8-0.1-1.6-0.1-2.5-0.2c-0.4,0-0.8,0.1-1.1,0.2c-0.4-0.1-0.8-0.2-1.2-0.3
		c-1.7-0.7-3.6-1-5.1-0.6c-1.6-0.2-3-0.1-4.2,0.8c-0.1-0.3-0.3-0.6-0.4-0.8c-0.5-0.9-0.9-1.6-1.9-2c-2-0.8-3.6,0.4-4.2,2.2
		c-0.9-0.2-1.8,0.1-2.3,0.8c-0.9,0.4-1.6,1.1-1.6,2.2c0,0.7,0,1.5-0.1,2.2c-0.1,0.1-0.2,0.3-0.2,0.4c-0.4,0.6-0.6,1.4-0.7,2.2
		c-0.2,1.3-0.2,2.6,0,3.7c0.3,1.2,0.9,2.2,1.7,2.9c0.8,1,1.8,1.7,2.9,1.8c0.2,0.2,0.5,0.3,0.7,0.4c1.4,0.5,2.8,0.8,4.2,1
		c1.2,0.5,2.6,0.6,4,0.3c0.9,0,1.9-0.1,2.9-0.2c1.3,0.4,2.4,0.5,3.9-0.1c0.1,0,0.2-0.1,0.3-0.2c1,0.1,2,0.2,3,0.3
		c1.1,0.3,2.2,0.5,3.5,0.4c0.7,0,1.3-0.4,1.8-0.9c0.2,0,0.3-0.1,0.5-0.1c1,2.2,3.5,3.2,5.9,3c2.4-0.2,4.8-1.2,7.1-2.1
		c5.4,4.1,11.9,4.3,18.3,2.8c0.4,1.1,1.4,2,2.9,1.5c4-1.2,7-3.6,10-6.3c0,0,0,0,0,0c1.9,0.6,3.8,0.9,5.8,1.1
		c2.3,1.3,4.6,2.8,6.3,4.9c-0.2,0.1-0.3,0.3-0.5,0.4c1.2,1.4,1.5,3.4-0.3,4.9c-1.5,1.3-1.8,4.7-2.6,6.5c-1.4,3.3-3.4,6.3-6.2,8.6
		c-0.1,0-0.1,0.1-0.2,0.1c-0.6,1.4-1.2,2.8-1.7,4.2c-1.7,2.1-5.6,6.2-8,5.3c-0.7-0.3-1.9,0-2.4,0.6c-0.4,0.5-0.8,1.1-1.1,1.6
		c-0.4,0.3-0.8,0.7-1,1.4c-0.3,1.3-0.7,2.5-1.3,3.7c-0.1,0.2-0.1,0.4-0.2,0.5c-0.2,0-0.3,0.1-0.5,0.1c0-2-2.9-3.5-4.3-1.7
		c-1.7,2.2-2.5,4-2.8,6.7c-0.6,1.8-1.2,3.5-1.7,5.3c-0.1,0.3-0.1,0.5-0.1,0.8c-1.1,1.8-2.3,3.6-3.3,5.5c-2.5-0.7-5.8-0.6-9.2,0.3
		c-1.9,0.3-3.8,0.9-5.4,1.9c-1.1,0.5-2.2,1.1-3.2,1.7c-1.2-1.1-2.4-2.2-3.5-3.3c0.7-0.4,1.2-1.1,1.1-2.1c-0.1-1.8-0.4-3.5-0.9-5.1
		c0-0.5-0.1-1.1-0.1-1.6c0.3-0.8,0.8-1.4,1.5-2c0.6,0.3,1.4,0.3,2.1-0.1c1.7-0.9,2.9-1.8,4.2-3.3c0.3-0.3,0.5-0.8,0.5-1.2
		c1.6,0.1,3.3-1.1,2.6-3.1c-0.1-0.2-0.1-0.4-0.2-0.6c0-0.7-0.3-1.5-0.9-2c-0.6-1.1-1.6-1.9-2.9-1.9c-1-1.1-2.4-1-3.7-0.7
		c-4,0.8-7.6,3-11.7,3.6c-4.2,0.7-8.4,0.6-12.5-0.4c-3.2-0.8-6.7-2.9-10-2.6c-1.2,0.1-2,0.7-2.4,1.8c-0.2,0.7-0.3,1.4-0.3,2.1
		c-0.6-0.2-1.3-0.1-1.9,0.3c-0.2-0.4-0.5-0.8-0.7-1.2c-0.2-0.3-0.5-0.6-0.8-0.8c-0.4-0.5-0.7-1-1.1-1.5c-0.5-0.7-1.2-1.1-2-1.1
		c-0.1-0.7-0.3-1.4-0.6-2.2c-0.2-0.4-0.4-0.7-0.7-1c-0.3-1-0.5-2-0.8-3c-0.2-0.8-0.8-1.3-1.4-1.5c-0.5-1.8-0.7-3.6-0.7-5.5
		c0-0.1,0.1-0.3,0.1-0.4c0.7-2.6,1.7-5.1,2.9-7.5c0.8-1.7-0.3-3.3-1.7-3.7c-0.1-2.7-1.5-5,0-7.7c2-3.5,5.5-4.3,8.7-6.1
		c4.1-2.3,4-6.1,1.6-9.8c-1-1.5-2.7-1.4-3.8-0.5c-0.2-0.1-0.4-0.3-0.7-0.4c-1.2,0.3-2.4,0.4-3.6,0.3c-0.3,0-0.7,0-1-0.1
		c-0.7,0.1-1.3,0.1-1.9-0.1c-2.1,0.7-4,1.3-6.8-0.7c-1.6-1.2-2.9-2.9-4.3-4.3c-1.6-1.4-3.2-2.4-4.2-4.4c-0.4-0.7-0.9-1-1.4-1.2
		c0.2-2.3-3.3-3.9-4.6-1.5c-2,3.5-1.9,6.8-1.1,10c-0.1,0.3-0.1,0.5-0.1,0.8c0.2,4,2.3,8.3,4.1,11.8c0.1,0.2,0.2,0.3,0.3,0.4
		c0.1,0.4,0.1,0.8,0.2,1.3c0.1,0.9,0.2,1.8,0.3,2.7c-0.4,0.5-0.5,1.2-0.3,2c0.3,0.9,0.5,1.8,0.7,2.6c0.1,0.9,0.3,1.8,0.6,2.7
		c0.3,1,1,1.5,1.8,1.7c0.1,1.1-0.2,2.3,0,3.4c0.4,2.5,1.9,4.7,4.1,5.8c0.2,0.1,0.3,0.1,0.4,0.2c-0.1,0.3-0.2,0.6-0.3,0.9
		c-0.2,1.1,0.2,2.1,1,2.8c0.6,0.6,1.5,0.9,2,1.6c0.1,0.2,0.3,0.3,0.5,0.4c0,0,0,0,0,0.1c-0.3,1.2-0.6,2.2-0.7,3.2
		c-0.6,0.1-1.1,0.5-1.4,1.2c-1,2.3-1.9,3-1.9,5.3c-1,2.8-1.7,5.8,0.3,7.4c0,0.1,0,0.2-0.1,0.4c0,0.3,0,0.5,0,0.8
		c-1.2,1.1-2.3,2.3-3.1,3.6c-0.9,1.5-0.9,3.3-0.6,5c-0.5,2.3,0.8,4.6,2.8,6.2c1.4,1.2,3.1,1.1,4.6,2.1c0.8,0.5,1.3,1.3,1.7,2.2
		c-0.4,0.7-0.5,1.5-0.1,2.4c1.1,2.3,1.4,4.8,3,6.8c1.1,1.4,1.9,2.4,2.6,3.6c-0.3,2.3,0.1,3.8,1.6,5.6c1.5,1.7,2.5,3.8,4,5.4
		c-0.5,2.3-0.1,4.7,1.1,6.7c0.5,2.6,1.9,4.7,4.9,4.9c0.5,0,1,0,1.5-0.2c0.5,0.3,1,0.5,1.5,0.6c0.7,1.7,1.6,3.5,2.8,5
		c0.3,0.5,0.7,1,1.3,1.4c1.5,1.5,3.3,2.4,5.2,2.1c0.6-0.1,1.1-0.2,1.5-0.4c1.2,0.2,3.2-0.6,4.9-1.3c4.3,3.7,11.6,3.5,14.8-0.6
		c0.2,0.2,0.4,0.4,0.6,0.5c0.4,1.4,1.6,2.7,3.1,3.4c3.5,1.6,6.8,0.4,9.5-2c0.5,1,1.1,1.9,1.8,2.8c0,0.8,0.4,1.6,1.1,2.1
		c0.9,0.6,1.4,0.9,2,1.1c0.6,0.4,1.3,0.6,2.2,0.5c0.4,0,0.7-0.2,1.1-0.3c0.2,0,0.3,0,0.5,0c1.4-0.1,2.6-0.6,3.5-1.4
		c0.2-0.1,0.4-0.1,0.5-0.2c0.3-0.1,0.6-0.3,0.8-0.4c0.1,2.4,1.1,4.5,3.1,5.7c0.4,0.6,0.9,1,1.7,1.3c0.2,0.2,0.3,0.4,0.5,0.5
		c1.8,1.5,4.1,1.3,5.9,0c2-1.5,2.8-3.7,3-6.1c0.7,0.2,1.5,0.3,2.2,0.4c0.4,0.1,0.9,0.1,1.4,0c1.1-0.1,2.2-0.3,3.2-0.8
		c1.1,0.7,2.7,0.7,3.4-0.8c0.7-1.4,1.3-2.8,2.1-4.1c0.8,0.3,1.5,0.9,2.3,1c0.2,0,0.3,0,0.4,0c0.8,0.6,1.9,0.7,2.8,0.3
		c1.6-0.7,2.7-1.8,3.5-3c0.5-0.1,0.9-0.3,1.3-0.7c0.9-0.9,1.7-2,2.1-3.2c1-0.8,1.9-1.6,2.7-2.5c2.8,1.1,6.9-0.8,9.8-3
		c1-0.6,2-1.4,2.7-2.3c0-0.1,0.1-0.1,0.1-0.2c0.1-0.1,0.2-0.3,0.3-0.4c0,0,0.1-0.1,0.1-0.1c0,0,0,0,0,0c0.6-0.8,1-1.7,1.2-2.7
		c0-0.1,0-0.1,0-0.2c2,0.2,4-0.1,5.9-1.2c2.4-1.5,4.2-4.1,5.7-6.8c0,0,0,0,0,0c3.6-0.5,5.9-3.2,7.8-6.2c1.1,0.1,2.2-0.2,3.2-1
		c1.4-0.3,2.7-1.2,3.4-2.5c0.3-0.6,0.6-1.2,0.8-1.7c3.7-1.5,6.8-3.8,9.9-6.4c3.7-3.2,7.2-7.2,11.8-9c2.2-0.9,3.5-2.8,3.7-4.8
		c1,0,1.9-0.1,2.8-0.6c2.8-1.5,4.5-4.1,4.7-7.2c0.1-0.2,0.3-0.3,0.4-0.5c1.9,0.3,3.9-0.4,5.1-2.7c0.6-1.1,1.1-2.2,1.6-3.3
		c0.5-0.9,1-1.9,1.5-2.8c0.2,0,0.4-0.1,0.6-0.2c4.9-2.4,8.7-5.9,11.9-10.4c3.3-4.6,6.7-9.4,9.5-14.4c2-3.5,2.8-7,3-10.4
		C401.6,357,402.8,356,402.5,354.6z M387.6,197.3c0.1,0,0.1,0,0.2,0c0.1,0.5,0.3,0.9,0.6,1.2c-0.4,0.2-0.7,0.4-0.9,0.7
		c-0.1-0.2-0.3-0.3-0.5-0.5c0-0.7-0.3-1.4-0.8-1.8C386.5,197.2,387,197.3,387.6,197.3z M383.9,194.4c0.5,0,0.9-0.1,1.3-0.4
		c-0.3,0.9,0,2,0.7,2.7c-0.4-0.3-0.8-0.4-1.4-0.4c-0.6,0-1.2,0.2-1.5,0.5c0.2-0.7,0-1.6-0.4-2.2
		C383.1,194.7,383.5,194.6,383.9,194.4z M380.4,208.8c0.3,0.4,0.8,0.7,1.4,0.8c0,0.7,0.3,1.4,0.8,1.9c-0.1,0-0.2,0-0.3,0
		c-0.1,0-0.2,0-0.3,0c0.1-1.1-0.5-2.3-1.9-2.3c0-0.1,0-0.1,0-0.2C380.2,209,380.3,208.9,380.4,208.8z M366.7,195.3
		c-0.1-0.2-0.2-0.3-0.3-0.5c0.4-0.5,0.6-1.1,0.6-1.7c0.1,0,0.2-0.1,0.3-0.1c0.2,0.5,0.6,1,1.1,1.3
		C367.7,194.4,367.1,194.8,366.7,195.3z M365.4,243.1c-0.2-0.1-0.5-0.2-0.9-0.3c0.4-0.1,0.7-0.4,0.9-0.6
		C365.4,242.5,365.4,242.8,365.4,243.1z M369.1,239.5c0.2-0.7,0-1.5-0.5-2c0.1,0,0.1,0,0.2,0c0,0.2,0.2,0.4,0.5,0.4
		c0.4,0,0.5-0.3,0.5-0.6c0.2-0.1,0.3-0.2,0.4-0.4c-0.1,0.5-0.1,1.1,0.1,1.5C369.8,238.7,369.4,239,369.1,239.5z M371.2,230.9
		c-0.2-0.2-0.4-0.4-0.6-0.5c-0.1-0.6-0.5-1.2-1.2-1.4c0.1-0.1,0.2-0.3,0.3-0.4c0.3,0.2,0.7,0.4,1.2,0.4c0.1,0,0.2,0,0.3,0
		c0,0.2,0.1,0.3,0.2,0.5C371.1,229.8,371,230.4,371.2,230.9z M372.2,233.5c-0.1-0.1-0.1-0.2-0.2-0.2c-0.1-0.1-0.2-0.2-0.3-0.2
		c0.1-0.5,0-0.9-0.1-1.4c0.2,0.2,0.4,0.3,0.6,0.4c-0.2,0.4,0,1,0.4,1.2C372.5,233.4,372.4,233.4,372.2,233.5z M374.7,201.6
		c0,0.1,0,0.1,0,0.2c-0.1,0-0.2-0.1-0.3-0.1c-0.2,0-0.3-0.1-0.5-0.1c-0.6-0.2-1.3-0.1-1.9,0.2c0.3-0.7,0.3-1.6,0-2.3
		c0.3-0.1,0.6-0.2,0.9-0.4c0,0,0,0.1,0,0.1C372.9,200.3,373.6,201.3,374.7,201.6z M373,193.9C373,193.9,373,193.9,373,193.9
		c-0.2,0.4-0.3,0.7-0.3,1.1c-0.2-0.1-0.5-0.3-0.7-0.3C372.3,194.5,372.7,194.2,373,193.9z M371,213.4c-0.1,0-0.2,0-0.3,0
		c0-0.4-0.1-0.8-0.2-1.2c1.8-0.5,1.8-3.3,0-3.8c0.1-0.2,0.1-0.4,0.1-0.6c0.2-0.1,0.4-0.3,0.6-0.5c0.1,0.1,0.1,0.2,0.2,0.3
		c0.1,0.1,0.2,0.2,0.2,0.2c0.2,0.2,0.4,0.3,0.6,0.4c-0.6,1.3-0.1,3.1,1.4,3.6c-0.2-0.1-0.4-0.1-0.7-0.1
		C371.8,211.6,371.1,212.5,371,213.4z M373,218.2c-0.2-0.3-0.5-0.5-0.8-0.7c0-0.2-0.1-0.4-0.2-0.7c0.4-0.3,0.5-0.8,0.6-1.3
		c0.1,0,0.2,0,0.3,0c0.2,0,0.4,0,0.6-0.1c0,0.3,0,0.6,0.2,0.9C373.2,216.9,373,217.5,373,218.2z M373.7,211.8
		c0.2,0.1,0.5,0.1,0.7,0.1c0.2,0,0.4,0,0.6-0.1c-0.2,0.3-0.3,0.6-0.4,1C374.5,212.3,374.2,211.9,373.7,211.8z M375.3,234.4
		c-0.2-0.3-0.4-0.6-0.8-0.8c0.4,0,0.7-0.2,1-0.4c0,0,0.1,0,0.1,0C375.4,233.6,375.3,234,375.3,234.4z M376,207.4
		c-0.3-0.2-0.6-0.4-1-0.5c0.1-0.2,0.1-0.5,0.1-0.7c0.5-0.3,0.9-0.8,1.1-1.4c0.1-0.3,0.1-0.6,0-0.9c0.3,0.1,0.6,0.2,0.9,0.2
		c0.5,0,0.9-0.1,1.2-0.3c0.1,0.2,0.2,0.5,0.3,0.7c-1.6,0-2.4,1.4-2.3,2.7C376.2,207.2,376.1,207.3,376,207.4z M376.7,217.1
		c0.2-0.2,0.3-0.4,0.4-0.6c0,0.5,0.2,1,0.5,1.3c-0.3,0.3-0.4,0.7-0.5,1.1c-0.1-0.2-0.2-0.3-0.4-0.4
		C376.9,218.1,376.9,217.6,376.7,217.1z M378.2,237.7c-0.3-0.1-0.7-0.2-1.1-0.2c0,0,0,0,0,0c0-0.2,0-0.4-0.1-0.6
		c0.4,0.2,0.9,0.2,1.5,0.1c0.1,0,0.2,0,0.3-0.1c0.1,0,0.1-0.1,0.2-0.1c0,0,0,0,0,0C378.6,237,378.4,237.3,378.2,237.7z"/>
</g>
<g id="Beard_Lines">
	<path class="st15" d="M405.1,338.1c0-0.3-0.1-0.5-0.1-0.8c-0.5-2-1.6-3.7-2.3-5.7c-0.1-0.3-0.2-0.5-0.2-0.8
		c-0.6-1.1-0.8-2.3-0.9-3.8c-0.1-2.6-0.8-4.3-1.7-6.6c-0.5-1.2-1.1-1.6-1.2-2.9c-0.1-1.1,0.6-2,0.7-3c0.6-5-0.6-3.8-1.8-6.9
		c-0.8-2-0.6-4.3-0.2-6.6c0.1-2.5-0.2-4.6-2.6-6.8c-4.7-4.3,0.4-13.9-1.7-19.8c-0.6-1.8-2.5-2.5-3.3-4c-1-1.9,0.4-4.9-0.4-7.3
		c-1.2-3.6-2.9-4.7-2.2-8.8c0.5-2.9,0.9-5.1,0.3-8c-1.3-6.3-5.6-11.7-4.9-18.5c0-0.1,0-0.2,0-0.3c-0.6,2.2-1,4.5-0.9,6.8
		c0.1,3.9,1.7,6.8,2.6,10.5c1,4-0.8,7.7-1.5,11.5c0,1.3,0.2,2.6,0.8,4c0.5,1.2,1.3,2.2,1.7,3.3c1.1,3,0.1,2.9-0.1,5.2
		c-0.2,1.6,0.4,2.8,1.5,4.1c1,1.2,1.7,1.5,2.3,3c0.8,2.1,0.3,4.8,0.3,7c-0.1,3.3-0.7,7.3-0.2,10.6c0.3,1.6,0.9,2.2,2,3.3
		c1.3,1.3,2.3,1.4,2.5,3.4c0.1,1.1-0.2,2.3-0.3,3.3c-0.2,2.1-0.3,4.2,0.6,6.1c0.3,0.7,1.2,1.4,1.5,2c0.7,1.8-0.1,1.4-0.6,3
		c-1.6,5,4.6,7,4.8,11.9c0.1,2.7,0.2,3.7,1.2,6.1c2,4.7,1.7,9.1-1.2,13.4c-0.4,0.6-0.3,1.4,0,2c2,3.3-0.3,10.4-1.2,14
		c-0.9,3.5-3.2,5.4-4.7,8.5c-1.9,3.8-3,7.2-6.1,10.2c-2.2,2.2-3.9,3.3-5.4,5.8c-1.6,2.5-4,2.7-6,4.9c-1.6,1.8-2.1,4.4-3.8,6.1
		c-1.1,1.1-2.5,1.5-3.8,2.1c-0.3,0-0.5,0.1-0.8,0.3c0,0,0,0,0,0c-0.8,0.3-1.5,0.8-2.1,1.5c-0.9,1.1-1.5,2.6-2,4
		c-1.5,2.3-3.3,4.1-6,3c-0.8-0.3-1.8,0.2-2.3,0.9c-0.4,0.7-0.6,1.1-0.7,1.7c-0.1,0.2-0.2,0.4-0.3,0.6c-0.2,0.8-0.5,1.4-0.9,1.9
		c-1.1,1-2.5,1.6-4,1.2c-0.8-0.2-1.4,0-1.9,0.5c-0.3,0.2-0.6,0.6-0.7,1c0.1,0.1,0.1,0.2,0.1,0.3c0,0.3,0,0.7,0.1,1
		c0,0.6-0.3,1.1-0.7,1.5c-0.4,0.5-1,0.7-1.7,0.8c-0.3,0-0.5,0.1-0.8,0.1c-0.1,0-0.3,0-0.4,0c0,0,0,0,0,0c-1.3-0.7-3.5,0.3-3.1,2.3
		c0.1,0.3,0.1,0.6,0.1,0.8c0,0.8-0.1,1.5-0.2,2.1c-0.6,1.5-2.2,2-4.1,2c-0.1,0-0.2-0.1-0.3-0.1c-0.5-0.2-0.9-0.1-1.3,0.1
		c-0.9,0.1-1.7,1.1-1.7,2c0,3.4-2.1,4.6-5,5.3c-1.1-0.3-2.3,0.1-2.6,1.3c-0.9,3.1-2.1,4.3-5.3,4.4c-1.2,0.1-2-0.3-3.2,0.4
		c-3.7,2.1-2.1,8.5-8.6,6.9c-1.3-0.3-2.4,0.6-2.5,1.9c-0.3,4.1-3.6,7.6-7.8,7.9c-2.3,0.2-4.5-1.3-6.7,0c-1.8,1-1.9,2.5-2.6,4.3
		c-1.7,3.9-6.2,6.3-10.2,4.2c-1.4-0.7-2.9,0.2-3,1.7c-0.3,5.3-7,3.1-9.5,2.4c-1.3-0.4-2.5,0.6-2.5,1.9c-0.1,6.7-9.8,7.7-10.2,0.3
		c-0.1-1.8-2.1-2.5-3.4-1.4c-4.1,3.4-9.3,1.4-10.7-3.4c-0.4-1.5-2.2-1.9-3.3-0.9c-3,2.7-7.6,2.2-10-1.1c-0.7-1-2.2-1.4-3.1-0.4
		c-3,3.3-6.2,2.7-9.7,0.7c-1.4-0.8-2.1-1.3-3.7-1.1c-1.8,0.2-3.3,1.4-5.2,1.7c-3.6,0.5-6.3-1.5-7.5-4.4c-1-1.5-1.7-3.2-2.9-4.6
		c-0.5-0.1-1.1-0.2-2-0.4c-1.6-0.3-3.2-0.8-4.4-2.1c-1.2-1.3-1.5-2.9-1.7-4.6c-0.2-1.7,0.1-3.7-0.4-5.4c-0.3-1.1-0.9-2.2-1.6-3.2
		c-0.1,0-0.1-0.1-0.2-0.1c-1.1-0.7-2.5-1.3-3.2-2.6c-0.7-1.3-0.4-2.1-0.3-3.5c0-0.8,0.7-2,0-2.8c-0.3-0.4-1.5-0.1-1.9-0.5
		c-1-0.8-1.6-0.8-1.9-2.2c-0.2-0.8,0.5-1.9,0.2-2.5c-0.2-0.5-1.4-0.9-1.7-1.6c-0.6-1.2-0.4-3.1-0.5-4.5c-1.6-2.5-2.3-1.6-4.8-2.8
		c-2.1-1-3.6-2.4-4.1-4.7c-0.3-1.4-0.1-2.8,0.3-4.2c0.2-1.7,0.8-3.2,2.2-4.8c0.7-0.8,1.2-1.3,1.6-1.9c0.3-0.7,0.4-1.6,0.4-3
		c0-0.3,0-0.6-0.1-0.8c-0.8-1.9-0.9-4-0.3-6c0.7-2.4,4.2-5.8,3.8-8.3c-0.3-1.9-1.5-0.3-2.8-1.6c-1-0.9-0.3-2-0.6-3
		c-0.7-2.2-3.1-2.2-3.8-4.5c-0.5-1.5-0.3-3.4-0.2-5.2c-0.1-0.1-0.1-0.3-0.2-0.5c-1.2-2-2.4-2.4-2.2-5c-0.9,0.1-2-0.6-1.7-1.8
		c1.8-7.6-3.2-12.8-4-20c-0.5-4.5,1.3-8.4,3.4-12.2c-0.3-0.5-0.5-0.9-0.7-1.4c-2.6,3.1-4.5,6.7-4.8,10.7c-0.4,4.7,1.7,9.5,3.1,13.9
		c0.7,2.4,2.2,5.3,2.1,8c0.1,0.1,0.2,0.3,0.2,0.5c0,0.1,0.1,0.3,0,0.5c0.1,0.3,0.2,0.6,0.1,1c-0.3,1.4-0.9,3-0.3,4.4
		c0.4,1,1.6,1.4,2.2,2.3c0.9,1.2,0.8,2.3,0.9,3.7c0.3,3.1,2.3,3.5,3.7,5.6c0.4,0.6,0.6,1.2,0.5,1.7c0.1,0,0.1,0.1,0.2,0.1
		c0.1,1.8,1.1,3.3,2.5,3.9c-2.7,4.8-6.4,11.2-4,15.6c-5.6,6.7-3.3,16.3,4.6,20c0,1.3,0.3,2.4,1.3,3.7c0.2,0.3,0.5,0.6,0.8,0.7
		c-1.2,3.4,1.3,6.2,4.4,8c-2.9,4.6,0.1,10.2,5.3,11.1c-0.6,4.1-0.7,8.4,2.1,11.8c1.8,2.2,4.2,3.3,6.8,3.3c0.8,6.5,6.7,11.5,13.6,9.9
		c2.2-0.5,3.8-1.2,6.1-0.4c1.6,0.5,2.7,1.5,4.5,1.7c2.9,0.4,5.6-0.5,7.8-2.2c3.4,3.2,8.3,3.9,12.4,1.7c2.7,5,8.4,6.7,13.5,4.4
		c3,8.2,15.3,7.8,17.3-1c4.7,0.9,10.1,0.4,11.8-4.1c2.5,0.7,5.1,0.4,7.6-0.8c1.6-0.8,3.1-2,4.2-3.4c1.2-1.5,1.6-3.8,3.2-4.5
		c1.6-0.7,3.9,0.1,5.6-0.3c1.9-0.4,3.7-1.2,5.3-2.4c2.4-1.9,3.9-4.3,4.6-7.1c1.9,0.1,3.7-0.3,5.4-1.4c0.8-0.5,1.6-1.3,2.2-2
		c0.5-0.6,1.1-2.8,1.6-3.1c0.8-0.7,1.9-0.7,2.9-0.7c2.8-1,4-3.5,6-5.5c0.6-0.8,1.4-1.4,2.1-1.9c0.6-0.5,1.2-1,1.9-1.5
		c0.7-0.7,1.3-1.3,1.9-2.1c0.8-1,1.5-2.1,2.4-2.9c2.2-2,4.8-2.7,6.9-4.6c0.1-0.2,0.3-0.4,0.4-0.7c0.4-0.6,0.8-1.1,1.3-1.5
		c0,0,0,0,0-0.1c0,0,0,0,0.1-0.1c0.2-0.1,0.3-0.2,0.4-0.3c0.3-0.2,0.6-0.4,0.8-0.7c1.2-1,2.2-2.1,3.5-3c0.2-0.2,0.5-0.3,0.7-0.5
		c3.6,0.1,7-2.3,8.3-5.7c0.7-0.2,1.3-0.4,1.9-0.6c1.1-0.2,2.2-0.8,3.3-1.5c1-0.7,1.9-1.5,2.6-2.4c1.1-1.5,1.6-3.6,3-4.9
		c0.4-0.2,0.7-0.4,1.1-0.7c2.7-1.7,3.7-3.6,5.4-6.2c2.5-3.8,6.8-5.9,9.5-9.5c3.1-4,6.4-8,9-12.3c1.2-2.1,2-4.4,3.2-6.4
		c1.2-2.1,2.9-3.7,4.2-5.7c0.4-0.7,0.8-1.4,1.1-2.2c0.2-1,0.4-2,0.6-3.1c0.1-0.5,0.2-1.1,0.3-1.6c0.1-2.9-0.3-5.8-0.3-8.9
		c0-1.7,0.5-3,1-4.6C404.8,340.9,405.1,339.5,405.1,338.1z"/>
	<path class="st15" d="M248.9,364.9c0.1,0.3,0.2,0.6,0.2,0.9c1.1-0.1,2.2-0.3,3.2-0.5c0.8-0.2,1.2-0.7,1.4-1.3
		C252.2,364.5,250.6,364.8,248.9,364.9z"/>
	<path class="st15" d="M269.8,332.3c-1.7-0.3-3.9-2.5-6-1.7c-0.7,0.3-1.1,0.6-1.6,1.2c-0.4,0.5-0.4,2-0.7,2.3
		c-1.2,1-2.5,0.3-3.8-0.3c-0.1,0-0.2,0-0.3,0c-1.4-0.2-4,2.5-5.6,2.9c-1.8,0.4-3.5,0.5-5.2,0.8c-1.6,1-2.3,1.6-5,1.9
		c-3.3,0.4-5.7,1.9-9.2,0.6c-2-0.8-3.1-2.3-5.5-2c-2.9,0.4-6.6,1.2-9.6,0.7c-1.3-0.2-2.3-1.3-3.7-1.3c-1.8,0-2.9,2.3-4.8,2.1
		c-0.1,0-0.2,0-0.4,0c-0.1-0.3-0.1-0.6-0.1-1.1c0-1-0.9-2.1-2-2c-2.4,0.2-4.4,4.2-6.4,3.7c-0.7-0.2-1.3,0.1-1.8,0.5
		c-0.5,0.3-0.9,0.8-0.8,1.7c0.7,4.9-3.5,11.2,0.5,15.5c1.1,1.2,2.8,2,4.4,2c0.6,0,1.2-0.2,1.8-0.4c0.1,0,0.2-0.1,0.3-0.1
		c1.5,2.3,4.2,3.1,7.1,2.3c1.8-0.5,3.5-2,5.5-1.5c0.8,0.2,1.6,1.2,2.4,1.5c1.1,0.5,2.1,0.3,3.1,0.1c1.2-0.7,2.4-1.2,3.9-0.9
		c1.5,0.3,2.6,1.3,4.2,1.5c2.3,0.3,4.7-0.5,7-0.8c3.8-0.6,7.2,0.9,11,0.8c1.3,0,2.5-0.3,3.7-0.7c-0.3-0.1-0.7-0.1-1.1,0
		c-3.5,0.8-6.6,0.3-9.7-1.6c-1.4-0.8-1.9-1.4-3.5-1.4c-2.7,0-5.4,2.4-8.2,1.1c-0.8-0.4-1.1-1.7-2.2-2.2c-0.6-0.3-1.3-0.3-2-0.2
		c-0.7,0.3-1.3,0.6-2.1,0.7c-2.4,0.4-4.7-0.9-7.1-0.9c-2.4,0-5,1.6-7.4,1.2c-1.5-0.3-2.1-1.5-3.5-1.7c-3.2-0.4-5.5,1.4-7.3-2.6
		c-1.4-3.3-0.3-7.6,0.5-11c0.2-0.9,1.1-1.2,1.8-1c0.4-0.3,0.9-0.6,1.4-0.8c0.6-0.3,1.4-0.6,2.1-0.8c0.2-0.1,0.4-0.3,0.6-0.4
		c0.7-0.4,1.6-0.1,2,0.5c1.9,3.3,4.9,0.2,7.2,0.2c2.4,0,4.4,1.3,6.9,1.1c2.6-0.1,4.8-0.9,7.4-0.6c2.3,0.3,4.4,1,6.7,1.5
		c4.4,0.9,6.6-0.7,10.2-2.6c2.1-1.2,4.3-1.4,6.6-1.9c2.1-0.5,3.9-1.7,6-2.2c1.8-0.4,3.7,0.1,5.5,0.3c0.1,0,0.1-0.1,0.2-0.1
		c0.6-0.4,1.1-1.2,1.8-1.5c1.1-0.5,2.1,0.1,3.2-0.1c1.7-0.4,2.8-1.4,3.5-2.6c0.1-0.3,0.2-0.6,0.5-0.9c0.1-0.2,0.2-0.4,0.3-0.6
		C271.4,330.5,270.2,331,269.8,332.3z"/>
	<path class="st15" d="M280.9,358.8c-2.1-2.1-5.3-3.5-8.3-2.8c-5.5,1.2-7.8,8.5-14.4,5.7c-0.1,0-0.2,0-0.2-0.1
		c-0.9,0.6-1.8,1.2-2.8,1.6c-0.2,0.7,0.1,1.5,1,1.9c3.7,1.6,7.3,1.7,10.8-0.5c2.3-1.5,3.7-3.8,6.5-4.3c3.8-0.6,6.6,3,7.8,6.6
		c-2.6,3.3-4.6,6.2-4.7,10.3c-1.4,0.3-2.5,1.4-3.4,3.1c-1.6,3.3-1.1,6.5-4.4,8.7c-1.9,1.2-3.4,1.8-4.9,3.5c-0.1,0.1-0.2,0.3-0.3,0.4
		c-0.1-0.5-0.3-1-0.6-1.5c-0.8-1.5-3.2-1.1-3.7,0.5c-0.3,1.1-1.4,5.9-2.7,8.8c-0.1,0.1-0.3,0.2-0.4,0.4c0-0.8,0-1.5,0-1.9
		c-0.1-2-2.6-2.7-3.7-1c-1.1,1.7-2,3.5-2.5,5.5c-0.4,1.2-0.6,2.5-1,3.7c-0.5,0.9-0.9,1.7-1.4,2.6c0,0.1-0.1,0.1-0.1,0.2
		c-0.3,0.3-0.5,0.7-0.5,1c0,0,0,0,0,0c-1,1.7-2.3,5.1-3.9,6.3c-1.9,1.3-4.2-0.4-6.1-0.6c-1.3-0.1-2.3,0.1-3.6,0.5
		c-0.9,0.3-3.3,2.1-3.9,1.9c0,0-1.6-2.4-1.7-2.5c-1.1-1-2.2-1.5-3.5-1.7c0.3-1.7,0.3-3.4,0-5.2c5.3-3.5,11.8-7.1,11.6-14.2
		c0-0.8-0.5-1.5-1.2-1.8c-0.6-0.1-1.1-0.1-1.7-0.1c-1.1,0.1-2.2,0.2-3.2,0.3c-1.2,0.2-2.3,0.4-3.6,0.4c-1.1,0-2.1,0-3.2,0.1
		c-2.5,0.6-5.2,1.2-8,1.6c-0.2,0.1-0.3,0.1-0.5,0.1c-3.1,0.5-6.2,0.9-9.2,0.8c-0.2,0.2-0.3,0.5-0.4,0.9c0.3,0,0.7,0,1,0
		c0.8,0,1.3,0.5,1.4,1.1c6.2,0.2,12.7-1.5,18.7-2.4c2-0.3,5.3-1.1,5.8,1.8c0.7,4.1-6.8,6.9-8.9,9.1c-0.8,0.8-1.2,1.7-1.5,2.6
		c0.4,1.2,0.8,2.4,0.6,3.8c-0.2,2.5-0.9,3.1,1,5.1c0,0,0,0,0,0c2.4,0.5,3.3,4.4,6.4,4.1c1.6-0.1,2.7-1.2,4.2-1.6
		c3.7-1.1,4,0.2,7.2,0.5c0.7,0.1,1.3,0,1.9-0.1c1.4-0.9,2.5-2,3.3-3.3c2.1-4.6,3.7-9.5,5-14.9c0.4-1.4,0.9-3.5,2.8-3.4
		c0.7,0.1,1,0.8,1.6,0.9c0.7,0.2,1.3,0.1,1.8-0.2c0.2-0.4,0.5-0.9,0.7-1.3c0.1-0.3,0.2-0.6,0.3-0.9c0.5-1.5,1.2-3.3,2.6-4.2
		c0.7-0.4,1.2-0.4,2-0.6c2.2-0.7,4.4-1.4,6.3-3.1c2.3-2,4.2-4.7,6-7.3c0.4-1,0.9-2,1.6-2.7c0.5-0.5,1.2-1,1.9-1.3
		c0.7-0.9,1.3-1.9,1.8-3c0.2-2.2,1-4.2,2.5-6.1c0.8-1,2.1-1.7,2.3-3.1C286,364.8,282.8,360.7,280.9,358.8z"/>
	<path class="st15" d="M196.3,395.1c-0.9-0.5-1.9-1-2.7-1.7c-1.5-0.7-3-0.8-4.1,1.2c-0.4,0.7-0.5,1.5-0.5,2.3
		c-2.3-2.2-4.4-4.7-5.7-7.8c-2.3-5.5-1.1-11.5,0-17.2c0.1-0.3,0.1-0.5,0-0.8c-0.3,0-0.7-0.1-1-0.4c0,0,0,0-0.1-0.1
		c0.1,0.3,0.1,0.6,0,1c-0.9,2.4-2.4,4.3-3.1,6.8c-0.9,3.2-0.6,6.3,0.1,9.4c1.5,6.6,5.2,10.6,10.1,14.4c3-0.1,1-3.7,2.2-5.4
		c1-1.4,2.6-1.4,4.2-1.1c0.3,0.1,0.7,0.1,1,0.2C196.6,395.7,196.5,395.4,196.3,395.1z"/>
	<path class="st15" d="M189.8,345.4C189.8,345.4,189.8,345.4,189.8,345.4c0,0.1,0,0.1,0,0.1c0.1,0.4,0.2,0.8,0.2,1.1
		c1.7,2.9,2.7,6.2-0.5,8.7c-1.9,1.5-4.5,1.9-6.5,3.1c-1.5,1-2.6,2-3.5,3.2c-1.4,2.6-1.8,5.8,0.9,7.9c0.1,0.1,0.2,0.2,0.3,0.3
		c0.4-0.1,0.8,0,1.2,0.2c-2.4-3.1-0.7-6.7,2.2-9.1c3.2-2.7,8-3,8.5-8.3C192.9,349.9,192.3,346.6,189.8,345.4z"/>
	<path class="st15" d="M368.6,289.3c-0.3-0.7-0.4-1.4-0.4-2.2c-0.4-1.9-0.7-3.8-0.3-5.7c0.1-0.6,0.2-1.1,0.4-1.6c0,0,0,0,0,0
		c0.5-2.1,1-4,0.7-6.5c-0.3-2.4-1-4.8-1.7-7.1c-0.7-2.1-1.8-3.8-2.1-6c-0.4-2.7,0.4-5.2-0.4-7.9c-0.8-2.7-1.9-4.9-2.7-7.4
		c0,0,0,0,0,0c-0.2,0.9-0.3,1.7-0.3,2.6c-0.1,1.6,0.4,3.2,0.5,4.8l0,0c0,0.3,0.1,0.5,0.1,0.8l0,0c0,0.3,0,0.6,0,0.8
		c0,0.9-0.2,1.8-0.3,2.7c0,1.6-0.2,3.3,0.1,4.9c0.5,2.2,1.7,3.7,2.6,5.7c0.2,0.5,0.3,1,0.5,1.5c-0.7,2.1,0.4,4.9,1,7.2
		c1.2,4.2-1.8,7.9-1.9,12c-2.1,0.1-4.1,1.2-5.5,3.1c-2,2.6-2,5.8-1.6,8.9c-2.6-0.2-5,0.4-6.6,2.9c-2.1,3.1-2.5,7.2-2.1,11
		c0.3,0.4,0.4,0.9,0.3,1.3c0,0.1-0.1,0.1-0.1,0.1c0,0,0,0,0,0c0,0,0,0,0,0c-0.2,0.4-0.5,0.6-0.8,0.8c-0.1,0.1-0.2,0.1-0.3,0.2
		c-3.6,2-1.6,6.6-4.9,8.7c-1.1,0.8-2.3,0.7-3.6,0.6c-2.1-0.2-3.6-0.3-5.4,0.7c-0.5,0.5-1,1.1-1.4,1.8c-6-3.1-12.6,7.7-12.1,14.6
		c-5.9,1.9-8.5,13.1-8.9,18.1c-0.1,0.9,0.2,3.4-0.1,4c0.2,0.1,0.3,0.2,0.5,0.3c-0.4-0.2-0.8-0.3-1.2-0.3c-1.3,0.5-2.2,0.5-3.2,1.5
		c-2.8,2.7-4.3,7.6-5.1,11.8c-1.5-0.6-3.2-0.7-4.7-0.3c0.2-2.4,0-4.7-0.6-7.1c5.9-9,6.6-22.7-2.7-29.7c-5.4-4-11.5-7.2-17.8-9.6
		c-0.2-0.1-0.4-0.2-0.7-0.2c-0.1,0.3-0.2,0.7-0.4,1c3.5,2.5,7.2,5,10.2,8c2.8,1.5,5.8,3.3,7.9,5.4c6.4,6.3,3.9,17.5-0.6,23.9
		c-0.6,0.8-0.4,1.6,0.1,2.2c0.8,3.3,0.7,6.3-0.2,9.6c-0.5,1.9,2,3.4,3.3,1.9c1.6-1.8,4.1-2.2,6.1-0.5c1,0.9,3.1,0.7,3.3-0.9
		c0.5-3.4,1.6-11.1,5-12.8c0.5-0.2,1.7,0.3,2.4,0c0.7-0.3,1.2-0.8,1.6-1.4c1.5-2.4,0.5-6.8,1.1-9.4c0.4-2.2,3.1-12.3,6.4-11.7
		c1.3,0.2,3.1-0.9,2.5-2.5c-1-2.5-0.3-4.6,0.7-7c0.3-0.7,1.2-2.7,2.4-4c0.6-0.8,1.3-1.5,2.3-1.9c1-0.4,2-0.3,3-0.3
		c0,0,0.1,0,0.1-0.1c0,0,0.1,0,0.1-0.1c1.1-0.9,2-1.9,3.3-2.8c2.4-1.6,5.7-0.2,7.7-2.2c0.7-0.7,1.3-1.4,1.8-2.1
		c0.7-2.4,2.2-4.4,5.1-4.7c1.3-0.1,2.3-1.2,1.9-2.5c-1-4.2-1.4-13.7,6.1-11.9c1.6,0.4,2.7-1,2.5-2.5c-0.5-3-1.4-11.9,4.7-9.5
		c1.3,0.5,2.3-0.6,2.4-1.8c0-0.3-0.1-0.7-0.1-1C368.6,289.3,368.6,289.3,368.6,289.3z"/>
</g>
<g id="Face_Lines">
	<path class="st13" d="M204.1,19.3c-16.9,15.8-23.2,38.5-26.9,60.6c-4.4,26.2-8.2,52.6-12.2,78.8c1.1-0.5,2.1-1,3.2-1.4
		c3.7-24.3,7.4-48.6,11.3-72.9c3.7-22.8,9.2-46.6,26.8-63C207.6,20.1,205.5,18,204.1,19.3z"/>
	<path class="st13" d="M440.7,204c-3.2-11.9-14.4-19.7-26.7-18.2c-8.5,1-14.8,5.8-20,11.9c-2.4,3.2-4.7,6.5-6.6,10.1
		c-1.5,2.9-2.9,6-4,9.1c1.8-2.6,3.9-5.1,5.9-7.6c2.6-3.2,5.2-6.4,8-9.4c6.1-6.8,13.5-11.8,23.4-10c18.7,3.5,17.6,24.1,17.3,38.8
		c-0.2,8.1-0.6,16.2-1.2,24.3c-0.3,4.5-1,8.4-2.7,12.6c-1.1,2.6-1.4,4.9-1.6,7.7c-0.4,7.5-3.9,13.9-8.3,19.8c-2,2.8-4.1,5.9-6.7,8.2
		c-4,3.6-9,3.1-13.9,2.6c-0.9-0.1-1.5,0.4-1.8,1.1c2.2,8.4,2.5,17.1,2.6,25.8c0,0,0,0,0,0c1.2-4.8,2.2-9.4,2.4-14.4
		c-0.1-2.7-0.3-5.5-0.5-8.2c5.1,0.3,10-0.2,13.9-4c4.6-4.3,8.7-10.3,11.7-15.7c1.4-2.4,2.5-5,3.3-7.7c1.1-3.6,0.6-7.2,1.3-10.8
		c0.7-3.1,2.6-5.9,3.2-9.1c0.8-3.9,0.9-7.9,1.1-11.8c0.5-8.1,0.9-16.2,1-24.3C442.2,217.9,442.5,210.7,440.7,204z"/>
	<path class="st13" d="M429.1,199.8c-0.9-1.4-2.1-2.5-3.5-3.4c-2.1-1.2-4.2-1.4-6.5-1.5c-1.5,0-3,0.2-4.6,0.5
		c-8.5,1.5-14,7.9-18.7,14.7c-4.3,6.4-6,14-4.1,21.5c1.9,7.7,14.4,18.1,9.4,26c-1.1,1.7,1.1,3.8,2.7,2.7c1.6-1,3.3-2.1,5.1-2.8
		c1.5-0.6,3-1.1,4.7-1.3c1.2-0.1,2.2,0.1,3.2,0.4c-2.6-2.1-5.9-3.1-9.3-2.8c-0.4,0.1-0.8,0.3-1.2,0.5c0.2-2.9-0.7-5.8-2.2-8.6
		c-3.5-6.5-8.7-11.6-9.1-19.4c-0.4-8.1,4.1-14.8,9.3-20.7c4.2-4.6,12.9-8.8,19.2-6.6c2.9,0.8,5.3,2.6,7.6,4.9
		C430.5,202.5,430,201,429.1,199.8z"/>
	<path class="st13" d="M434.7,242.4c0.3-1.2,0.5-2.4,0.7-3.7c0.4-2.7,0.7-5.4,0.9-8.1c0-1.8-0.2-3.6-0.5-5.3c-0.4-2.5-1.1-5.1-2-7.5
		c-0.2-0.5-0.8-2-1.5-3.4c0.1,1.3,0,2.7,0.1,4c0.1,2.3,0.2,4.7,0.1,7.1c0,1.4-0.1,2.8-0.3,4.2c-0.1,2.4-0.4,4.9-0.8,7.3
		c-0.6,4-1.5,8-3.4,11.3c-1,2.2-2.3,4.3-3.8,6.3c3.7-1.9,6.7-5.4,8.9-9C433.8,244.6,434.3,243.5,434.7,242.4z"/>
	<path class="st13" d="M409.6,227.5c-0.5-1-1.7-2.3-3-3.3c-0.8-0.4-1.6-0.6-2.5-0.7c-3.2-0.5-6.1,0.8-7.9,3.4c-1.5,2.1,2,4.1,3.5,2
		c0.7-1.1,1.6-1.5,2.6-1.6c3-0.9,6.4,2.2,8.7,4.9C410.8,230.6,410.4,229,409.6,227.5z"/>
	<path class="st13" d="M428.6,224.1c-0.9-3.1-2.5-6.1-4.7-8.4c0.4,3.4,1.1,6.5,2.7,9.7c0.8,1.4,1.4,2.9,2,4.3
		C429.2,227.9,429,226,428.6,224.1z"/>
	<path class="st13" d="M170.4,252.7c-0.1-0.2-0.2-0.3-0.3-0.4c-9.5-6.7-22.4-12.4-33.7-7.5c0.1-1.3,0.4-2.6,0.8-3.9
		c5.7-1.1,11.4-0.6,16.9,1.1c3.7,0.7,7.8,1.9,11.3,3.8c-0.4-0.5-0.8-1-1.3-1.4c-0.7-0.7-1.5-1.4-2.3-2c-0.8-0.6-1.6-1.1-2.5-1.6
		c-0.4-0.2-0.8-0.4-1.2-0.6c-7-2.6-14.4-3.6-21.8-2.1c-0.1,0-0.2-0.1-0.3-0.1c-0.1,0-0.1,0-0.2,0c-0.1-0.1-0.2-0.1-0.3-0.2
		c-3-1.8-4.1-5.7-4.9-8.9c-1-4.1,0.6-7.8,0.4-11.9c-0.2-2.7-2.3-5.4-3.3-7.9c-1.3-3.4-2.1-7-2.4-10.7c-0.2-2.5-4.2-2.6-4,0
		c0.4,4,1.1,8,2.6,11.8c0.6,1.7,1.8,3.3,2.3,5c1.1,3.4,0,5.9,0,9.2c-0.1,5.7,1.9,13.2,6.9,16.6c-0.5,1.5-0.7,3.1-0.7,4.7
		c0,0.7,0.3,1.2,0.7,1.5c0,0.7,0.7,1.5,1.5,1c10.5-6.4,22.9-1.5,32.4,4.6c-5.9,0.1-9,5.8-15.1,6.6c-2.7,0.4-5.2-0.1-7.9-0.8
		c-1.4-0.4-3.3-1.4-4.8-1.2c-0.5,0.1-0.9,0.1-1.2,0.3c-0.5,0.1-0.9,0.5-1.1,1c0,0.3-0.1,0.7-0.1,1c0,0,0,0,0,0
		c0.6,5.5,2.5,11.7,6.7,15.5c-8.7,12.3-12.2,27.7-9.9,42.6c2.8,18.1,15.6,32.9,25.8,47.4c1.5,2.1,4.9,0.1,3.5-2
		c-9.4-13.4-21.4-27.1-24.8-43.5c-3.2-15.1,0.5-30.9,9.5-43.3c0.7-0.9,0.4-1.8-0.3-2.4c0-0.5-0.1-1-0.6-1.5c-3.5-3.1-5.3-8.4-5.8-13
		c2.2,0.4,5.2,1.5,5.9,1.6c1.8,0.3,3.7,0.4,5.5,0.2c6.2-0.8,10.1-7.8,16.5-6.4c0.8,0.2,1.9,0,2.1-0.9
		C170.9,253.4,170.7,253.1,170.4,252.7z"/>
	<g id="Layer_5">
		<path class="st13" d="M143.9,259.3c0.7,0.2,1.4,0.4,2.1,0.6c-0.1-0.1-0.1-0.3-0.2-0.4c-3-4.5-5.6-10-3.4-15.4
			c0.1-0.1,0.1-0.3,0.1-0.4c-0.7,0.1-1.5,0.2-2.2,0.4c-0.8,0.2-1.5,0.5-2.3,0.6c-1.3,4.8,0.3,9.9,2.7,14.2
			C141.8,258.7,142.8,259,143.9,259.3z"/>
		<path class="st13" d="M146.6,272.2c-0.7-0.6-1.4-1.7-2.3-2.2c-0.1-0.2-0.3-0.4-0.4-0.6c-0.3-0.6-1.2-0.1-0.9,0.5
			c0.1,0.1,0.2,0.2,0.2,0.4c0,0.1,0,0.3,0.1,0.4c0.3,0.4,0.7,0.9,1.1,1.2c0.2,0.2,0.4,0.2,0.6,0.1c0,0,0,0,0,0c-0.5,0.2-0.5,1,0.1,1
			c0.1,0,1,1,1,1.1c0.4,0.8-0.4,1.4-0.9,1.9c-0.5,0.6-0.9,1.3-1.3,2c-0.2,0.3,0.1,0.6,0.3,0.7c-0.6,0.7-1.2,1.4-1.7,2.2
			c-0.3,0.5,0.5,1,0.9,0.5c1.2-1.9,4.4-4.4,4.5-6.8C148.2,273.5,147.4,273,146.6,272.2z"/>
		<path class="st13" d="M135.5,245.9c-0.4,0.3-0.8,0.6-1.1,0.9c-0.4,0.3-0.6,0.5-0.8,0.1c0-0.1,0-0.1,0-0.2
			c-0.1-0.4-0.1-0.8-0.1-1.2c0-0.4,0.1-0.9,0-1.3c0-0.2,0.1-0.5,0.2-0.7c0.2-0.6-0.8-0.9-1-0.3c-0.1,0.2-0.1,0.4-0.1,0.7
			c0,0.1-0.1,0.1-0.1,0.2c-0.2,1.2-0.3,2.8,0.5,3.8c0.9,1.1,2.4-0.5,3.1-1.1C136.5,246.4,136,245.5,135.5,245.9z"/>
	</g>
	<path class="st13" d="M163.3,269.2C163.3,269.2,163.3,269.2,163.3,269.2c-1.1,1.2-2.5,2.3-4,2.9c-0.6,0.3-1.8,0.5-2.9,0.7
		c-0.8,0.2-1.6,0.4-2.3,0.7c-0.1,0-0.2,0.1-0.3,0.1c0,0,0,0-0.1,0c0,0-0.1,0-0.1,0.1c-0.5,0.3-0.9,0.7-1,1.3c0,0.3,0.2,0.6,0.5,0.7
		c0.7,0.3,1.7,0,2.4-0.2c0,0,0,0,0,0c0.4-0.1,0.8-0.2,1.2-0.3c1.7-0.6,3.3-1.6,4.7-2.8c1.6-1.4,2.5-2.9,3.3-4.5
		C164.3,268.3,163.8,268.7,163.3,269.2z"/>
	<path class="st13" d="M175.9,347.2c1,0.2,2,0.3,3,0.4c5.2,0.4,9.3-1,13.4-3.6c-11.5,3.6-23.8-0.2-29.3-11.5
		c-5.6-11.3-2.8-21.9,1.3-32.9c-2.2,3.2-4.2,6.7-5.5,10.2c-0.9,2.6-1.4,5.2-1.8,7.9c-0.1,0.4-0.1,0.9-0.2,1.3
		c-0.1,6.1,1.3,12.1,5.2,17.9C165.5,342.1,170.4,345.5,175.9,347.2z"/>
	<path class="st13" d="M234.8,311.2c-1.4-3.3-3.3-6.1-6-8.1c4.4,4.2,6,10.8,4.7,16.9c-1.7,7.8-8.6,10.8-16,10.9
		c-9.7,0.2-19.2,0.8-25.9,8.7c-1.2,1.5,0.9,3.6,2.1,2.1c6-7,14.4-7.7,23-7.8c5.7-0.1,11.6-1.2,15.7-5.4c2.1-2.2,3.4-4.8,4.1-7.6
		C236.8,317.6,236,314.1,234.8,311.2z"/>
	<path class="st13" d="M289.9,336.8c-6.7-3.6-14-6.4-21.1-9.3c-1.5-0.6-2.9-1.2-4.2-1.9c-2.7-1.1-5.3-2.2-7.7-3.7
		c-4-2.5-7.7-5.4-11.2-8.8c2.3,3.3,4.8,6.3,7.9,9.1c1.4,1.3,2.9,2.4,4.4,3.6c0.1,0.1,0.3,0.2,0.4,0.2c5.6,3.2,11.9,5.3,17.8,7.8
		c6.4,2.8,14.7,5.3,19,11.2c4.7,6.4,4.3,14.6,0.9,21.5c-0.9,1.7,1.7,3.2,2.6,1.5C304.4,356.6,301.6,343.1,289.9,336.8z"/>
	<path class="st13" d="M412.4,292c-0.7-1.4-1.1-2.8-1.4-4.3c-0.1-0.8-1.1-1.2-1.8-1c-0.9,0.2-1.2,1-1,1.8c0.3,1.8,0.8,3.4,1.7,5
		C410.7,295.2,413.3,293.7,412.4,292z"/>
	<path class="st13" d="M286.7,242.8c-11.1-1.8-21.3-7-32.6-6.7c-10.2,0.3-17.5,3.7-23.4,12c-0.1,0.1-0.1,0.2-0.1,0.3
		c-0.6,0.4-0.9,1.3-0.1,1.7c8.8,3.8,17,4.5,26.5,3.1c8.5-1.3,18.7-3.2,25.7-8.6c0.2-0.1,0.3-0.3,0.3-0.4c1,0.2,2.1,0.4,3.1,0.5
		C287.4,244.9,287.9,243,286.7,242.8z M258.2,251c-9.1,1.5-17.1,1.2-25.6-2.2c6.5-9,15.4-11.3,26.2-10.7c4.6,0.3,8.5,1.8,12.8,3.2
		c2.9,1,5.9,1.7,8.9,2.3C274.4,248.1,265.5,249.8,258.2,251z"/>
	<path class="st13" d="M300.1,240c-5.9-0.2-11.2-2.1-17-3.8c-6.5-2-13.1-3.4-19.8-4.2c-8.9-1.1-17.6-1.4-25.9,0.6
		c-1.5,0.5-2.9,1.1-4.3,1.9c-2.1,1.3-3.9,3-5.4,5c12.5-7,27-6.2,40.8-3.7c8.2,1.4,16.2,4.9,24.4,6.5c2.4,0.2,4.8,0,7.1-0.7
		c1.4-0.4,2.5-0.9,3.6-1.5C302.5,240.1,301.3,240.1,300.1,240z"/>
	<path class="st13" d="M259.9,266c-1.9,0.3-3.7,0.4-5.6,0.3c-2.5,0.2-5.1,0.1-7.6,0c-1.7-0.1-3.3-0.4-4.8-1c1.5,1.1,3.2,2.1,5.3,2.8
		c1.5,0.5,3.1,0.9,4.7,1.1c2.7,0.2,5.4,0.1,8-0.2c3.7-0.9,7.6-2.6,10.2-5.2C266.7,264.9,263.3,265.7,259.9,266z"/>
	<path class="st13" d="M259.7,358.7c-6.5,3.5-13.3,6.1-20.4,7.8c-7.5,1.7-15,1.7-22.5,2.6c-3.3,0.4-6.4,1.2-9.5,2.4
		c-3.8,1.5-7.1,3.1-11.3,1.7c-5.6-1.8-9.3-5.8-15.6-4.5c-2.5,0.5-1.5,4.4,1.1,3.9c7-1.4,12.3,6.2,19.7,5.1c2.8-0.4,5.3-1.7,7.9-2.6
		c4.1-1.5,8.2-2.1,12.5-2.4c14.3-1,27.5-3.8,40.2-10.6C263.9,361,261.9,357.5,259.7,358.7z"/>
	<path class="st13" d="M219,395.6c0,0,0-0.1-0.1-0.1c-3.9,1.2-8.6,1.1-12.5,1.1c-3,0-5.8-0.4-8.6-0.9c-0.7-0.3-1.8-0.8-2.4-0.6
		c-0.5,0.2-0.6,0.5-0.5,0.8c0,0.1,0,0.2,0.1,0.3c0.1,0.1,0.2,0.2,0.2,0.2c0.5,0.6,1.2,1.1,1.5,1.2c0,0,0,0,0,0
		c1.9,1.1,4.3,1.6,6.4,2c2.1,0.3,4,0,5.9-0.5c1.1-0.2,2.1-0.4,3.1-0.7C214.3,397.7,217.1,397.1,219,395.6z"/>
	<g id="Layer_7">
		<path class="st16" d="M163.1,249.3c-0.9-0.6-1.8-1.2-2.7-1.8c-0.3-0.1-0.5-0.2-0.8-0.3c-1.8-0.5-3.5-1.2-5.2-1.9
			c-0.9-0.3-1.7-0.6-2.5-0.9c-0.6,1.7-1,3.5-1,5.5c0,3.7,1.3,7.1,3.4,9.8c2.8-1.4,5.2-3.2,8.1-4.4c0.2-0.1,0.3-0.1,0.5-0.2
			c0.9-0.5,1.9-0.9,2.9-1c1-0.4,2-0.6,3.1-0.8C167.1,251.8,165.1,250.6,163.1,249.3z"/>
		<path class="st16" d="M282.4,242.5c-1.4-0.2-2.8-0.5-4.2-0.9c-5.4-1.3-10.8-2.9-16.3-4.3c-1.5-0.2-3.1-0.3-4.6-0.3
			c-2.3,0-5-0.4-7.4,0c-0.2,0.1-0.4,0.2-0.7,0.2c-0.2,1.1-0.3,2.2-0.3,3.3c0,4.7,1.8,8.9,4.8,12c4.4-0.5,8.8-1,13.2-1.9
			c5.2-1.6,10.1-3.8,14.7-6.8c0.4-0.4,0.9-0.7,1.3-1.1C282.8,242.6,282.6,242.6,282.4,242.5z"/>
	</g>
	<path class="st13" d="M360,59.8c-0.1-0.8-0.6-1.5-1.5-1.5c-0.7,0-1.6,0.7-1.5,1.5c0.2,1.5,0.3,2.9,0.5,4.4c0.1,0.8,0.6,1.5,1.5,1.5
		c0.7,0,1.6-0.7,1.5-1.5C360.3,62.8,360.2,61.3,360,59.8z"/>
	<path class="st13" d="M361.7,72.5c-0.6-1.8-3.5-1.1-2.9,0.8c0.4,1.2,0.5,2.3,0.3,3.5c-0.1,0.8,0.2,1.6,1,1.8c0.7,0.2,1.7-0.2,1.8-1
		C362.3,75.9,362.2,74.2,361.7,72.5z"/>
	<path class="st13" d="M362.6,84.8c-0.1-1.9-3.1-1.9-3,0c0.1,2.4,0.6,4.6,0.5,7c-0.1,1.9,2.9,1.9,3,0
		C363.2,89.4,362.7,87.2,362.6,84.8z"/>
	<path class="st13" d="M360.4,99.3c-0.1,2-0.1,4-0.2,6c-0.1,1.9,2.9,1.9,3,0c0.1-2,0.1-4,0.2-6C363.4,97.4,360.4,97.4,360.4,99.3z"
		/>
	<path class="st13" d="M362.2,115c0.1-0.8-0.7-1.5-1.5-1.5c-0.9,0-1.4,0.7-1.5,1.5c-0.1,1.5-0.2,2.9-0.1,4.4c0.1,1.9,3.1,1.9,3,0
		C362,117.9,362.1,116.4,362.2,115z"/>
	<path class="st13" d="M358.5,127.2c-0.1,1.5-0.1,3.1-0.2,4.6c-0.1,1.9,2.9,1.9,3,0c0.1-1.5,0.1-3.1,0.2-4.6
		C361.5,125.3,358.5,125.3,358.5,127.2z"/>
	<path class="st13" d="M357,140.7c-0.4,1.9-0.7,3.9-0.8,5.9c-0.1,1.9,2.9,1.9,3,0c0.1-1.7,0.3-3.4,0.7-5.1
		C360.3,139.6,357.4,138.8,357,140.7z"/>
	<path class="st13" d="M356.5,151.6c-0.9,0-1.4,0.7-1.5,1.5c-0.2,1.7-0.4,3.5-0.6,5.2c-0.1,0.8,0.8,1.5,1.5,1.5
		c0.9,0,1.4-0.7,1.5-1.5c0.2-1.7,0.4-3.5,0.6-5.2C358.1,152.3,357.3,151.6,356.5,151.6z"/>
	<path class="st13" d="M353.4,164.2c-0.6,1.8-1,3.7-1.2,5.6c-0.1,0.8,0.8,1.5,1.5,1.5c0.9,0,1.4-0.7,1.5-1.5
		c0.2-1.7,0.6-3.3,1.1-4.8C356.9,163.2,354,162.4,353.4,164.2z"/>
	<path class="st13" d="M187.1,34.8c-0.7-0.4-1.6-0.2-2.1,0.5c-0.1,0.2-0.2,0.4-0.4,0.6c-0.4,0.7-0.2,1.6,0.5,2.1
		c0.7,0.4,1.6,0.2,2.1-0.5c0.1-0.2,0.2-0.4,0.4-0.6C188,36.2,187.8,35.2,187.1,34.8z"/>
	<path class="st13" d="M184.2,41.2c-0.7-0.4-1.6-0.1-2.1,0.5c-0.7,1-1.2,2.2-1.6,3.4c-0.3,0.8,0.3,1.6,1,1.8c0.8,0.2,1.6-0.3,1.8-1
		c0.3-0.9,0.8-1.8,1.3-2.7C185.2,42.5,184.9,41.6,184.2,41.2z"/>
	<path class="st13" d="M179.6,50.5c-0.9,0-1.4,0.7-1.5,1.5c-0.1,0.9-0.5,1.7-1,2.5c-0.4,0.7-0.1,1.7,0.5,2.1
		c0.7,0.4,1.6,0.1,2.1-0.5c0.8-1.2,1.2-2.6,1.4-4C181.2,51.2,180.4,50.5,179.6,50.5z"/>
	<path class="st13" d="M175.7,61.5c-0.3,1.3-0.6,2.7-1.1,4c-0.6,1.8,2.3,2.6,2.9,0.8c0.4-1.3,0.8-2.6,1.1-4
		C179,60.4,176.1,59.6,175.7,61.5z"/>
	<path class="st13" d="M175.3,71.1c-0.8-0.2-1.7,0.3-1.8,1c-0.2,0.9-0.4,1.8-0.6,2.6c-0.2,0.8,0.2,1.6,1,1.8c0.8,0.2,1.7-0.3,1.8-1
		c0.2-0.9,0.4-1.8,0.6-2.6C176.5,72.2,176.1,71.4,175.3,71.1z"/>
	<path class="st13" d="M173,80.6c-0.7-0.2-1.7,0.2-1.8,1c-0.2,0.8-0.3,1.6-0.5,2.4c-0.2,0.8,0.2,1.7,1,1.8c0.7,0.2,1.7-0.2,1.8-1
		c0.2-0.8,0.3-1.6,0.5-2.4C174.2,81.7,173.8,80.8,173,80.6z"/>
	<path class="st13" d="M171.1,90.1c-0.8,0-1.6,0.7-1.5,1.5c0,0.7,0,1.4-0.1,2c-0.1,0.8,0.2,1.7,1,1.8c0.7,0.2,1.7-0.2,1.8-1
		c0.2-0.9,0.2-1.8,0.2-2.8C172.5,90.8,171.9,90.1,171.1,90.1z"/>
	<path class="st13" d="M169.7,98.3c-0.7-0.2-1.7,0.2-1.8,1c-0.1,0.7-0.2,1.3-0.4,2c-0.1,0.8,0.2,1.7,1,1.8c0.7,0.2,1.7-0.2,1.8-1
		c0.1-0.7,0.2-1.3,0.4-2C170.9,99.3,170.5,98.5,169.7,98.3z"/>
	<path class="st13" d="M168.9,106.9c-0.7-0.2-1.7,0.2-1.8,1c-0.1,0.9-0.2,1.8-0.4,2.6c-0.1,0.8,0.2,1.6,1,1.8c0.7,0.2,1.7-0.2,1.8-1
		c0.1-0.9,0.2-1.8,0.4-2.6C170,107.9,169.7,107.1,168.9,106.9z"/>
	<path class="st13" d="M168.1,117.5c0.1-0.8-0.7-1.5-1.5-1.5c-0.9,0-1.4,0.7-1.5,1.5c-0.1,1.1-0.1,2.3-0.1,3.4
		c0,0.8,0.7,1.5,1.5,1.5c0.8,0,1.5-0.7,1.5-1.5C168,119.7,168,118.6,168.1,117.5z"/>
	<path class="st13" d="M164.5,126.8c-0.9,0-1.4,0.7-1.5,1.5c0,0.4-0.1,1-0.3,1.4c-0.3,0.7-0.2,1.6,0.5,2.1c0.6,0.4,1.7,0.2,2.1-0.5
		c0.4-0.9,0.6-1.9,0.7-2.9C166,127.6,165.2,126.8,164.5,126.8z"/>
	<path class="st13" d="M163.1,135.2c-0.9,0-1.4,0.7-1.5,1.5l-0.3,2.2c-0.1,0.8,0.8,1.5,1.5,1.5c0.9,0,1.4-0.7,1.5-1.5l0.3-2.2
		C164.7,135.9,163.9,135.2,163.1,135.2z"/>
	<path class="st13" d="M163.6,144.5c0-0.8-0.7-1.5-1.5-1.5c-0.8,0-1.5,0.7-1.5,1.5c0,0.9,0.1,1.7,0.1,2.6c0,0.8,0.7,1.5,1.5,1.5
		c0.8,0,1.5-0.7,1.5-1.5C163.7,146.2,163.6,145.3,163.6,144.5z"/>
	<path class="st13" d="M162.1,150.9c-0.7-0.2-1.7,0.2-1.8,1c-0.1,0.7-0.2,1.4-0.1,2.2c0.1,0.8,0.6,1.5,1.5,1.5
		c0.7,0,1.6-0.7,1.5-1.5c-0.1-0.5,0-0.9,0-1.4C163.3,152,162.9,151.1,162.1,150.9z"/>
</g>
<g id="Hat">
	<path class="st13" d="M410.3,190.3c1.7-0.5,3.4-0.8,5.1-0.8c0.1,0,0.1,0,0.2-0.1c-0.6-0.2-1.3-0.4-1.9-0.6
		C412.3,189.2,410.7,189.7,410.3,190.3z"/>
	<path class="st13" d="M408.6,190.8c-0.1-0.2-0.1-0.3,0-0.5c0.2-1,1.5-1.6,3-2.1c-13.8-3.7-28.5-5.1-42.3-7.4c0-0.9,0-1.8-0.3-2.5
		c-0.1-0.3-0.2-0.5-0.4-0.7c0,0,0,0,0-0.1c-0.1-0.6-0.8-1.3-1.4-1.4c-7.8-1.2-15.5-2.4-23.3-3.6c1-7.1,2.1-14.2,3.3-21.3
		c0-0.2,0-0.4,0-0.6c1.6-8.1,2.6-16.3,3.5-24.5c1.7-16.8,3.4-33.9,2-50.8c-1.3-16.5-6.3-36.6-17.6-50.1c0,0,0,0,0-0.1
		c-0.8-1-1.7-1.9-2.5-2.9c-0.4-0.4-0.9-0.8-1.3-1.2c-1.1-1-2.2-2-3.4-2.9c0.8,0.2,1.6,0.4,2.4,0.7c4.8,1.5,9.6,5,12.7,8.9
		c2.8,3.5,5.1,7.3,6.9,11.2c0.7,1.3,1.4,2.7,1.9,4.1c1.6,4,3.8,7.9,6.1,11.7c-0.1-1.1-0.2-2.1-0.3-3.2c-0.3-1.7-0.4-3.7-0.8-5.6
		c-0.3-1.2-0.7-2.3-1.1-3.5c0-0.1-0.1-0.2-0.1-0.2c-0.1-0.1-0.1-0.2-0.1-0.3c-0.3-0.7-0.5-1.5-0.8-2.2c11.3,5.5,22.2,11.9,31.4,20.5
		c10.8,10.1,17.6,22.9,21.7,37c4.2,14.7,6.1,30.1,7.6,45.4c1.5,14.9,2.1,29.8,2.2,44.7c1.4,0.1,2.7,0.5,4,1.1
		c0-16.6-0.8-33.2-2.6-49.7c-1.6-15.3-3.6-31-8.3-45.7c-4.3-13.5-11.3-25.8-21.8-35.5c-10.5-9.8-23.1-16.8-36-22.9
		c-0.3-0.1-0.5-0.2-0.8-0.2c-2.1-4-4.6-7.7-7.7-10.9c-3.2-3.4-7.4-6.1-11.8-7.9c-4.3-1.7-10.1-2.9-14.8-2.4c0,0-0.1,0-0.1,0
		c-1.7-0.6-3.4-1-5.2-1.3c0,0,0,0-0.1,0c-0.1,0-0.2,0-0.2,0c-0.3-0.1-0.5-0.2-0.8-0.2c-0.2,0-0.4,0-0.6,0c-4-0.5-8.3,0-12.2,0
		c-10.6,0-21.1-1.1-31.6-2c-19.7-1.6-39.4-1.7-57.9,6.3c-17.2,7.4-33,19.5-46.1,32.7c-13.4,13.5-21.9,30-28.3,47.7
		c-7.8,21.6-12,44.4-12.6,67.4c-9.1,2.2-18.2,4.6-27.2,7.1c-15.1,4.2-30.2,8.4-45.3,12.6c-11.4,3.2-24.7,5.9-33.2,14.9
		c-7.6,8-10.6,21-2.3,29.7c8.1,8.6,20,8.4,30.9,6.6c9-0.3,17.9-1.2,26.7-2.8c9.4-1.7,18.6-4.1,27.6-7.3c9.8-3.4,19.3-8.1,29.8-8.9
		c0,0,0,0,0.1,0c-0.2-0.8-0.3-1.6-0.5-2.4c-0.1-0.5-0.3-1-0.4-1.5c-15.3,1.4-29.3,9.4-44.1,13.2c-10.1,2.6-20.6,4.6-31.2,5.4
		c0,0,0,0,0,0c-2.7,0.4-5.5,0.6-8.2,0.5c-0.2,0-0.4,0-0.6,0c-0.3,0-0.5,0-0.8,0c0,0,0,0,0,0c-2.9,0-5.9,0-8.8-0.2
		c-8.6-0.5-22-6.2-15.6-17.1c3.8-6.5,12.2-10.3,18.7-13.2c15-6.8,31.5-9.7,47.8-8.8c17.1,1,33.7,5.8,50,10.6
		c16.4,4.7,32.9,9.2,49.5,13.2c31,7.4,63.8,16.4,95.9,11.8c28.4-4.1,54.4-17.2,77.5-33.9c0,0,0,0,0,0c0.5-0.4,1-0.8,1.5-1.2
		c0.8-0.6,1.7-1.3,2.6-1.7c0,0,0.1,0,0.1,0c1.6-1.1,3.1-2.1,4.3-3.5c0.1-0.1,0.2-0.2,0.4-0.3c0.3-0.4,0.6-0.9,0.9-1.4
		c0,0,0-0.1,0-0.1c12.8,2.1,26.2,3.5,39,6.5C407.8,191.2,408.2,191,408.6,190.8z M135.1,108c5.4-17.8,12.7-35.9,24.9-50.2
		c11.2-13.1,25.5-24.5,40.5-33c17-9.7,35-12.7,54.4-11.8c10.5,0.5,21,1.7,31.6,2.3c5.3,0.3,10.5,0.5,15.8,0.4c1.3,0,2.7-0.1,4.1-0.1
		c0.2,0,0.4,0.1,0.6,0.1c9.2-0.1,16.5,3.8,23,9.7c14.1,14.2,18.8,39.1,19.3,57.6c0.4,15.1-1.1,30.2-2.6,45.1
		c-0.9,9.1-2.2,18.1-4.3,26.9c0.1-0.1,0.2-0.2,0.3-0.2c-1,5.8-1.9,11.5-2.6,17.3c-0.9-0.1-1.8-0.3-2.6-0.6c0,0,0,0,0,0.1
		c-21.5-3.3-42.9-6.6-64.4-9.9c-30.1-4.6-60.2-9.9-90.7-7.9c-18.9,1.2-37.5,4.6-56,9C126.7,144.3,129.7,125.8,135.1,108z
		 M364.5,183.5c-0.1,0.2-0.2,0.3-0.3,0.5c-25.1,19.8-54.7,35.9-86.9,39.7c-17.6,2.1-35-0.2-52.3-3.6c-18-3.5-36-7.7-53.8-12.2
		c-17.6-4.5-35-10-52.7-14.5c-16.3-4.2-33.1-7.1-49.9-5.3c-15.3,1.6-31,6.5-44,14.9c-6.1,4-11.1,10.5-10.9,16.9
		c-4-12.8,8.8-22.8,19.1-26.9c11.9-4.6,24.6-7.3,36.9-10.8c13.4-3.8,26.8-7.6,40.2-11.1c26.7-7,54-12.9,81.7-13.6
		c28.2-0.7,56.2,4.5,84,8.8c15.7,2.4,31.4,4.8,47.1,7.2c7.5,1.2,15.1,2.3,22.6,3.5c3.9,0.6,7.9,1.2,11.8,1.8c0.9,0.1,2,0.2,3,0.3
		c0.9-0.2,1.9,0,2.6,0.1c0.8,0.2,1.4,0.5,1.7,1c0.2,0.1,0.4,0.3,0.5,0.5C365.4,181.8,365.1,182.7,364.5,183.5z"/>
</g>
</svg>
