<?xml version="1.0" standalone="no"?>
<!DOCTYPE svg PUBLIC "-//W3C//DTD SVG 1.1//EN" "http://www.w3.org/Graphics/SVG/1.1/DTD/svg11.dtd">
<!--Generator: Xara Designer (www.xara.com), SVG filter version: 5.0.0.2-->
<svg stroke-width="0.501" stroke-linejoin="bevel" fill-rule="evenodd" xmlns:xlink="http://www.w3.org/1999/xlink" xmlns="http://www.w3.org/2000/svg" version="1.1" overflow="visible" width="1440pt" height="810pt" viewBox="0 0 1440 810">
 <defs>
  <marker id="DefaultArrow2" markerUnits="strokeWidth" viewBox="0 0 1 1" markerWidth="1" markerHeight="1" overflow="visible" orient="auto">
   <!-- REF_ARROW_STRAIGHT (-2) -->
   <g transform="scale(0.0092592592)">
    <!-- 1/108 -->
    <path d="M -9 54 L -9 -54 L 117 0 z"/>
   </g>
  </marker>
  <marker id="DefaultArrow3" markerUnits="strokeWidth" viewBox="0 0 1 1" markerWidth="1" markerHeight="1" overflow="visible" orient="auto">
   <!-- REF_ARROW_ANGLED -->
   <g transform="scale(0.0092592592)">
    <path d="M -27 54 L -9 0 L -27 -54 L 135 0 z"/>
   </g>
  </marker>
  <marker id="DefaultArrow4" markerUnits="strokeWidth" viewBox="0 0 1 1" markerWidth="1" markerHeight="1" overflow="visible" orient="auto">
   <!-- REF_ARROW_ROUNDED -->
   <g transform="scale(0.0092592592)">
    <path d="M -9,0 L -9,-45 C -9,-51.708 2.808,-56.580 9,-54 L 117,-9 C 120.916,-7.369 126.000,-4.242 126,0 C 126,4.242 120.916,7.369 117,9 L 9,54 C 2.808,56.580 -9,51.708 -9,45 z"/>
   </g>
  </marker>
  <marker id="DefaultArrow5" markerUnits="strokeWidth" viewBox="0 0 1 1" markerWidth="1" markerHeight="1" overflow="visible" orient="auto">
   <!-- REF_ARROW_SPOT -->
   <g transform="scale(0.0092592592)">
    <path d="M -54, 0 C -54,29.807 -29.807,54 0,54 C 29.807,54 54,29.807 54,0 C 54,-29.807 29.807,-54 0,-54 C -29.807,-54 -54,-29.807 -54,0 z"/>
   </g>
  </marker>
  <marker id="DefaultArrow6" markerUnits="strokeWidth" viewBox="0 0 1 1" markerWidth="1" markerHeight="1" overflow="visible" orient="auto">
   <!-- REF_ARROW_DIAMOND -->
   <g transform="scale(0.0092592592)">
    <path d="M -63,0 L 0,63 L 63,0 L 0,-63 z"/>
   </g>
  </marker>
  <marker id="DefaultArrow7" markerUnits="strokeWidth" viewBox="0 0 1 1" markerWidth="1" markerHeight="1" overflow="visible" orient="auto">
   <!-- REF_ARROW_FEATHER -->
   <g transform="scale(0.0092592592)">
    <path d="M 18,-54 L 108,-54 L 63,0 L 108,54 L 18, 54 L -36,0 z"/>
   </g>
  </marker>
  <marker id="DefaultArrow8" markerUnits="strokeWidth" viewBox="0 0 1 1" markerWidth="1" markerHeight="1" overflow="visible" orient="auto">
   <!-- REF_ARROW_FEATHER2 -->
   <g transform="scale(0.0092592592)">
    <path d="M -36,0 L 18,-54 L 54,-54 L 18,-18 L 27,-18 L 63,-54 L 99,-54 L 63,-18 L 72,-18 L 108,-54 L 144,-54 L 90,0 L 144,54 L 108,54 L 72,18 L 63,18 L 99,54 L 63,54 L 27,18 L 18,18 L 54,54 L 18,54 z"/>
   </g>
  </marker>
  <marker id="DefaultArrow9" markerUnits="strokeWidth" viewBox="0 0 1 1" markerWidth="1" markerHeight="1" overflow="visible" orient="auto">
   <!-- REF_ARROW_HOLLOWDIAMOND -->
   <g transform="scale(0.0092592592)">
    <path d="M 0,45 L -45,0 L 0, -45 L 45, 0 z M 0, 63 L-63, 0 L 0, -63 L 63, 0 z"/>
   </g>
  </marker>
  <filter id="StainedFilter">
   <feBlend mode="multiply" in2="BackgroundImage" in="SourceGraphic" result="blend"/>
   <feComposite in="blend" in2="SourceAlpha" operator="in" result="comp"/>
  </filter>
  <filter id="BleachFilter">
   <feBlend mode="screen" in2="BackgroundImage" in="SourceGraphic" result="blend"/>
   <feComposite in="blend" in2="SourceAlpha" operator="in" result="comp"/>
  </filter>
  <filter id="InvertTransparencyBitmapFilter">
   <feComponentTransfer>
    <feFuncR type="gamma" amplitude="1.055" exponent=".416666666" offset="-0.055"/>
    <feFuncG type="gamma" amplitude="1.055" exponent=".416666666" offset="-0.055"/>
    <feFuncB type="gamma" amplitude="1.055" exponent=".416666666" offset="-0.055"/>
   </feComponentTransfer>
   <feComponentTransfer>
    <feFuncR type="linear" slope="-1" intercept="1"/>
    <feFuncG type="linear" slope="-1" intercept="1"/>
    <feFuncB type="linear" slope="-1" intercept="1"/>
    <feFuncA type="linear" slope="1" intercept="0"/>
   </feComponentTransfer>
   <feComponentTransfer>
    <feFuncR type="gamma" amplitude="1" exponent="2.4" offset="0"/>
    <feFuncG type="gamma" amplitude="1" exponent="2.4" offset="0"/>
    <feFuncB type="gamma" amplitude="1" exponent="2.4" offset="0"/>
   </feComponentTransfer>
  </filter>
 </defs>
 <g id="Document" fill="none" stroke="black" font-family="Times New Roman" font-size="16" transform="scale(1 -1)">
  <g id="Spread" transform="translate(0 -810)">
   <g id="Layer 1">
    <path d="M 0.005,810.004 L 0.005,-0.013 L 1440.01,-0.013 L 1440.01,810.004 L 0.005,810.004 Z" fill="#000000" stroke-linecap="round" stroke-width="0.5" stroke="none" stroke-linejoin="miter" marker-start="none" marker-end="none" stroke-miterlimit="79.8403193612775"/>
    <text xml:space="preserve" transform="translate(247.778 589.682) scale(1 -1) scale(1.00006 1)" font-size="22.92" stroke="none" font-family="Lucida Sans Typewriter"><tspan x="0" y="0" font-weight="bold" fill="#fd6803">class</tspan><tspan x="69.0507854745194" y="0" fill="#cc7832"> </tspan><tspan x="82.8609425694233" y="0" fill="#ffffff">Introduction:</tspan><tspan x="0" y="53.852" fill="#a9b7c6">    </tspan><tspan x="55.2406283796155" y="53.852" font-weight="bold" fill="#fd6803">def</tspan><tspan x="96.6710996643271" y="53.852" fill="#fd6803"> </tspan><tspan x="110.481256759231" y="53.852" fill="#00ffff">__init__</tspan><tspan x="220.962513518462" y="53.852" fill="#ffffff">(</tspan><tspan x="234.772670613366" y="53.852" fill="#9328b1">self</tspan><tspan x="290.013298992981" y="53.852" fill="#fd6803">,</tspan><tspan x="303.823456087885" y="53.852" fill="#cc7832"> </tspan><tspan x="317.633613182789" y="53.852" fill="#ffffff">greet</tspan><tspan x="386.684398657309" y="53.852" fill="#fd6803">,</tspan><tspan x="400.494555752212" y="53.852" fill="#cc7832"> </tspan><tspan x="414.304712847116" y="53.852" fill="#ffffff">name</tspan><tspan x="469.545341226732" y="53.852" fill="#fd6803">,</tspan><tspan x="483.355498321636" y="53.852" fill="#cc7832"> </tspan><tspan x="497.16565541654" y="53.852" fill="#ffffff">job):</tspan><tspan x="0" y="80.778" fill="#a9b7c6">        </tspan><tspan x="110.481256759231" y="80.778" fill="#9328b1">self</tspan><tspan x="165.721885138847" y="80.778" fill="#ffffff">.greet = greet</tspan><tspan x="0" y="107.704" fill="#a9b7c6">        </tspan><tspan x="110.481256759231" y="107.704" fill="#9328b1">self</tspan><tspan x="165.721885138847" y="107.704" fill="#ffffff">.name = name</tspan><tspan x="0" y="134.63" fill="#a9b7c6">        </tspan><tspan x="110.481256759231" y="134.63" fill="#9328b1">self</tspan><tspan x="165.721885138847" y="134.63" fill="#ffffff">.job = job</tspan><tspan x="0" y="188.482" fill="#a9b7c6">   </tspan><tspan x="41.4304712847116" y="188.482" font-weight="bold" fill="#a9b7c6"> </tspan><tspan x="55.2406283796155" y="188.482" font-weight="bold" fill="#fd6803">def</tspan><tspan x="96.6710996643271" y="188.482" font-weight="bold" fill="#cc7832"> </tspan><tspan x="110.481256759231" y="188.482" fill="#ffd500">intro</tspan><tspan x="179.53204223375" y="188.482" fill="#ffffff">(</tspan><tspan x="193.342199328654" y="188.482" fill="#9328b1">self</tspan><tspan x="248.58282770827" y="188.482" fill="#ffffff">):</tspan><tspan x="0" y="215.408" fill="#a9b7c6">        </tspan><tspan x="110.481256759231" y="215.408" font-weight="bold" fill="#fd6803">return</tspan><tspan x="193.342199328654" y="215.408" fill="#fd6803"> </tspan><tspan x="207.152356423558" y="215.408" fill="#69c859">f"{self.greet}</tspan><tspan x="400.494555752212" y="215.408" fill="#fd6803">\n</tspan><tspan x="428.11486994202" y="215.408" fill="#69c859">m</tspan><tspan x="441.925027036924" y="215.408" fill="#69c859">y name is {self.name} and I'm a {self.job}!"</tspan><tspan x="0" y="296.186" fill="#ffffff">greeting = Introduction(</tspan><tspan x="331.443770277693" y="296.186" fill="#69c859">"Welcome"</tspan><tspan x="455.735184131828" y="296.186" fill="#fd6803">,</tspan><tspan x="469.545341226732" y="296.186" fill="#cc7832"> </tspan><tspan x="483.355498321636" y="296.186" fill="#69c859">"Jurgen Schoobaar"</tspan><tspan x="731.938326029905" y="296.186" fill="#fd6803">,</tspan><tspan x="745.748483124809" y="296.186" fill="#cc7832"> </tspan><tspan x="759.558640219713" y="296.186" fill="#69c859">"Web Developer"</tspan><tspan x="966.710996643271" y="296.186" fill="#ffffff">)</tspan><tspan x="0" y="350.038" fill="#284ec6" font-weight="bold">print</tspan><tspan x="69.0507854745194" y="350.038" fill="#ffffff">(greeting.intro())</tspan></text>
   </g>
  </g>
 </g>
</svg>
